<svg width="31" height="32" fill="none" xmlns="http://www.w3.org/2000/svg"><path d="M13.936 27.48v.704h-.033v.026H3.272l.172-.846a12.568 12.568 0 0 1 .202-.845l.022-.073.02-.073c.032-.107.062-.206.094-.307v-.002l.004-.01c.027-.083.054-.166.085-.25a17.484 17.484 0 0 1 .235-.631c.041-.1.084-.199.132-.303.016-.043.035-.085.057-.127a6.27 6.27 0 0 1 .182-.385c.044-.09.092-.183.14-.27a1.66 1.66 0 0 1 .065-.12l.004-.006.005-.01.006-.013c.063-.117.122-.22.18-.315.054-.095.113-.194.177-.293l.023-.035c.017-.03.035-.058.054-.087l.025-.038c.062-.1.132-.204.203-.305.078-.112.16-.23.254-.352.06-.086.126-.173.214-.28l.006-.009.006-.007.018-.02a9.548 9.548 0 0 1 .345-.415 6.692 6.692 0 0 1 .311-.346 12.22 12.22 0 0 1 3.239-2.48H4.466A15.414 15.414 0 0 0 .002 29.804L0 31.168v.234h17.058V17.548h.002v-.395l-.002-2.141V3.93h.04l.705-.007h9.927l-.172.845a12.216 12.216 0 0 1-3.357 6.226 12.54 12.54 0 0 1-1.143 1.01h4.52a15.36 15.36 0 0 0 2.197-3.66 15.428 15.428 0 0 0 1.222-6.015L31 .73H13.936v26.75Z" fill="#A6A6A6"/><path d="M3.195 14.352V3.762l.842.167a12.196 12.196 0 0 1 6.608 3.716V3.402A15.37 15.37 0 0 0 1.62.5H0v16.107h10.645v-2.255h-7.45ZM27.512 16.576v11.529l-.841-.167a12.184 12.184 0 0 1-6.37-3.461v4.16a15.363 15.363 0 0 0 2.766 1.517 15.366 15.366 0 0 0 6.02 1.215h1.617V14.321H20.301v2.255h7.211Z" fill="#A6A6A6"/></svg>