<svg width="31" height="28" fill="none" xmlns="http://www.w3.org/2000/svg"><path d="M12.919 2.827c.036 0 .072.003.108.005.208.008.419.02.636.037.978.072 1.924.214 2.82.424V1.019A16.823 16.823 0 0 0 13.57.557 21.089 21.089 0 0 0 12.063.5h-.01c-1.91 0-3.876.252-5.843.75C3.975 1.812 1.836 2.677 0 3.76V26.28a25.324 25.324 0 0 1 5.914-2.293 25.873 25.873 0 0 1 4.972-.757l.016-.001h.007l.043-.002c.28-.014.56-.022.849-.025v-2.305a27.601 27.601 0 0 0-6.45.854c-.781.197-1.536.42-2.244.661l-.8.273V5.125l.344-.164a22.161 22.161 0 0 1 4.122-1.476 22.08 22.08 0 0 1 4.32-.656 19.182 19.182 0 0 1 1.307-.02h.016c.167.004.335.008.503.018Z" fill="#A6A6A6"/><path d="m27.556 5.588.799-.27v17.559l-.345.164a22.256 22.256 0 0 1-4.123 1.474c-1.784.451-3.56.68-5.278.68-.531 0-1.06-.022-1.573-.067l-.552-.047v-2.127l.004.004V7.018l.644.042c.468.03.951.045 1.477.045 2.2 0 4.455-.287 6.702-.854a30.325 30.325 0 0 0 2.245-.663Zm-8.947-.384c-.53 0-1.055-.02-1.56-.057a19.778 19.778 0 0 1-1.815-.216c-.359-.06-.712-.132-1.055-.212V26.98c1.35.345 2.839.52 4.43.52 1.907 0 3.873-.252 5.843-.748 2.232-.563 4.37-1.429 6.208-2.51V2.125a25.384 25.384 0 0 1-5.912 2.294c-2.067.52-4.132.785-6.139.785Z" fill="#A6A6A6"/></svg>