<svg width="129" height="73" fill="none" xmlns="http://www.w3.org/2000/svg"><path d="M19.474 72.98c-.827 0-1.536-.182-2.13-.547a3.644 3.644 0 0 1-1.363-1.51c-.316-.645-.474-1.388-.474-2.228 0-.844.162-1.589.485-2.234.323-.65.78-1.155 1.369-1.515.593-.364 1.293-.547 2.102-.547.672 0 1.267.125 1.784.374.52.245.936.593 1.245 1.044.309.447.485.97.528 1.569h-1.865a1.794 1.794 0 0 0-.539-1.001c-.28-.27-.655-.406-1.126-.406-.399 0-.75.109-1.051.325-.302.213-.537.52-.706.92-.165.4-.248.88-.248 1.438 0 .567.083 1.054.248 1.461.165.404.397.716.695.936.302.217.656.325 1.062.325.287 0 .544-.054.77-.162a1.55 1.55 0 0 0 .577-.482c.155-.209.26-.464.318-.763h1.865a3.27 3.27 0 0 1-.518 1.564 3.066 3.066 0 0 1-1.218 1.06c-.513.253-1.117.379-1.81.379Zm6.492-11.242v11.08h-1.951v-11.08h1.95Zm5.01 11.242c-.809 0-1.51-.179-2.102-.536a3.631 3.631 0 0 1-1.38-1.499c-.323-.641-.485-1.392-.485-2.25 0-.858.162-1.61.485-2.256a3.623 3.623 0 0 1 1.38-1.504c.593-.357 1.293-.536 2.102-.536.808 0 1.509.179 2.102.536a3.59 3.59 0 0 1 1.374 1.504c.327.646.49 1.398.49 2.256 0 .858-.163 1.609-.49 2.25a3.597 3.597 0 0 1-1.374 1.5c-.593.356-1.294.535-2.102.535Zm.01-1.57c.439 0 .805-.12 1.1-.362.295-.245.514-.573.658-.984.147-.412.22-.87.22-1.374 0-.509-.073-.969-.22-1.38-.144-.415-.363-.745-.658-.99-.295-.245-.661-.368-1.1-.368-.449 0-.822.123-1.12.368-.295.245-.516.575-.663.99-.144.411-.216.871-.216 1.38 0 .505.072.962.216 1.374.147.41.368.739.662.984.299.242.672.363 1.122.363Zm10.281-2.087v-4.816h1.951v8.31h-1.892v-1.476h-.086a2.498 2.498 0 0 1-.921 1.141c-.424.296-.947.444-1.568.444-.543 0-1.023-.121-1.44-.363a2.518 2.518 0 0 1-.97-1.066c-.233-.468-.35-1.035-.35-1.698v-5.292h1.951v4.989c0 .526.144.945.431 1.255.288.31.665.465 1.132.465.287 0 .566-.07.835-.21.27-.141.49-.35.663-.628.176-.282.264-.633.264-1.055Zm6.422 3.64c-.65 0-1.232-.167-1.746-.503-.514-.335-.92-.822-1.218-1.46-.298-.639-.447-1.414-.447-2.327 0-.923.15-1.702.453-2.337.305-.638.716-1.12 1.234-1.444a3.162 3.162 0 0 1 1.73-.493c.485 0 .884.084 1.196.25.313.162.56.358.744.589.183.227.325.442.426.644h.08v-4.144h1.957v11.08h-1.919v-1.31h-.118c-.101.202-.246.417-.437.644-.19.224-.442.415-.755.573-.312.16-.706.239-1.18.239Zm.545-1.606c.413 0 .765-.112 1.056-.336.29-.227.512-.542.663-.946.15-.404.226-.875.226-1.413 0-.537-.075-1.004-.226-1.4-.147-.397-.367-.706-.658-.926-.287-.22-.64-.33-1.061-.33-.435 0-.798.114-1.089.341-.291.227-.51.541-.658.942-.147.4-.22.858-.22 1.373 0 .52.073.983.22 1.391.151.404.372.723.663.958.295.23.656.346 1.084.346Zm15.036-4.653-1.779.195c-.05-.18-.138-.35-.264-.509a1.311 1.311 0 0 0-.495-.384 1.799 1.799 0 0 0-.766-.146c-.406 0-.747.088-1.024.265-.273.177-.408.406-.404.687a.72.72 0 0 0 .264.59c.183.151.485.276.905.373l1.413.303c.783.17 1.365.438 1.746.806.384.368.578.85.582 1.445a2.268 2.268 0 0 1-.458 1.385c-.299.397-.714.707-1.245.93-.532.224-1.143.336-1.833.336-1.013 0-1.828-.213-2.447-.639-.617-.429-.986-1.026-1.104-1.79l1.902-.184c.086.375.27.658.55.85.28.19.645.286 1.094.286.463 0 .835-.096 1.115-.287.284-.191.426-.427.426-.709a.74.74 0 0 0-.275-.59c-.18-.154-.46-.273-.84-.356l-1.412-.298c-.794-.166-1.382-.445-1.763-.839-.38-.396-.569-.897-.566-1.503-.003-.513.135-.956.415-1.332.284-.378.678-.67 1.18-.876.507-.209 1.091-.314 1.752-.314.97 0 1.734.208 2.29.623.561.414.908.975 1.04 1.682Zm4.844 6.276c-.83 0-1.547-.173-2.15-.52a3.512 3.512 0 0 1-1.385-1.482c-.324-.642-.485-1.398-.485-2.267 0-.855.161-1.605.485-2.25a3.676 3.676 0 0 1 1.369-1.515c.585-.364 1.273-.547 2.064-.547.51 0 .991.084 1.444.25.456.162.859.414 1.207.757.353.342.63.779.83 1.309.202.526.302 1.154.302 1.883v.6H65.01v-1.32h4.915a2.113 2.113 0 0 0-.242-1 1.767 1.767 0 0 0-.664-.699 1.857 1.857 0 0 0-.98-.254c-.399 0-.75.097-1.051.292a2.01 2.01 0 0 0-.706.758 2.19 2.19 0 0 0-.254 1.022v1.152c0 .484.089.899.264 1.245.177.342.423.606.739.79.316.18.686.27 1.11.27.284 0 .54-.04.77-.119.23-.083.43-.203.6-.362.168-.159.295-.356.382-.59l1.821.205a2.858 2.858 0 0 1-.657 1.267c-.32.357-.73.634-1.23.833-.498.194-1.07.292-1.713.292Zm4.724-.163v-8.31h1.892v1.386h.087c.15-.48.409-.85.775-1.11a2.13 2.13 0 0 1 1.267-.395c.108 0 .228.006.361.017.137.007.25.02.34.038v1.801a2.038 2.038 0 0 0-.394-.076 3.636 3.636 0 0 0-.512-.037c-.355 0-.675.077-.96.232a1.7 1.7 0 0 0-.662.633 1.79 1.79 0 0 0-.243.936v4.885h-1.95Zm13.057-8.31-2.948 8.31h-2.156l-2.948-8.31h2.08l1.903 6.173h.086l1.908-6.173h2.075Zm.743 8.31v-8.31h1.95v8.31h-1.95Zm.98-9.489c-.308 0-.574-.103-.797-.308a.995.995 0 0 1-.334-.752c0-.296.111-.547.334-.752.223-.21.489-.314.798-.314.312 0 .578.105.797.314a.985.985 0 0 1 .334.752.995.995 0 0 1-.334.752c-.219.205-.485.308-.797.308Zm5.98 9.652c-.826 0-1.535-.182-2.128-.547a3.644 3.644 0 0 1-1.364-1.51c-.316-.645-.474-1.388-.474-2.228 0-.844.162-1.589.485-2.234.324-.65.78-1.155 1.37-1.515.592-.364 1.293-.547 2.1-.547.673 0 1.267.125 1.785.374.52.245.936.593 1.245 1.044.309.447.485.97.528 1.569H95.28a1.791 1.791 0 0 0-.539-1.001c-.28-.27-.655-.406-1.126-.406-.399 0-.75.109-1.05.325-.303.213-.538.52-.707.92-.165.4-.248.88-.248 1.438 0 .567.083 1.054.248 1.461.165.404.397.716.695.936.302.217.656.325 1.062.325.288 0 .544-.054.77-.162.23-.112.423-.273.577-.482.155-.209.26-.464.318-.763h1.865a3.27 3.27 0 0 1-.517 1.564 3.066 3.066 0 0 1-1.218 1.06c-.514.253-1.118.379-1.811.379Zm8.207 0c-.83 0-1.547-.173-2.15-.52a3.512 3.512 0 0 1-1.386-1.482c-.323-.642-.485-1.398-.485-2.267 0-.855.162-1.605.485-2.25a3.675 3.675 0 0 1 1.37-1.515c.585-.364 1.273-.547 2.063-.547.511 0 .992.084 1.445.25a3.27 3.27 0 0 1 1.207.757c.352.342.629.779.83 1.309.201.526.302 1.154.302 1.883v.6h-6.785v-1.32h4.914a2.108 2.108 0 0 0-.242-1 1.766 1.766 0 0 0-.663-.699 1.857 1.857 0 0 0-.981-.254c-.399 0-.749.097-1.051.292a2.01 2.01 0 0 0-.706.758c-.165.31-.25.65-.253 1.022v1.152c0 .484.088.899.264 1.245.176.342.422.606.739.79.316.18.686.27 1.11.27.284 0 .54-.04.77-.119.23-.083.43-.203.599-.362.168-.159.296-.356.382-.59l1.822.205a2.849 2.849 0 0 1-.658 1.267c-.32.357-.729.634-1.229.833-.499.194-1.07.292-1.713.292Zm11.267-6.276-1.779.195c-.05-.18-.138-.35-.264-.509a1.307 1.307 0 0 0-.496-.384 1.795 1.795 0 0 0-.765-.146c-.406 0-.747.088-1.024.265-.273.177-.408.406-.404.687a.721.721 0 0 0 .264.59c.183.151.485.276.905.373l1.412.303c.784.17 1.366.438 1.747.806.384.368.578.85.582 1.445a2.273 2.273 0 0 1-.458 1.385c-.299.397-.714.707-1.245.93-.532.224-1.143.336-1.833.336-1.013 0-1.829-.213-2.447-.639-.618-.429-.986-1.026-1.104-1.79l1.902-.184c.086.375.269.658.55.85.28.19.645.286 1.094.286.463 0 .835-.096 1.115-.287.284-.191.426-.427.426-.709a.74.74 0 0 0-.275-.59c-.179-.154-.46-.273-.84-.356l-1.412-.298c-.795-.166-1.382-.445-1.763-.839-.381-.396-.569-.897-.566-1.503-.003-.513.135-.956.415-1.332.284-.378.678-.67 1.181-.876.506-.209 1.09-.314 1.751-.314.97 0 1.734.208 2.291.623.56.414.907.975 1.04 1.682Z" fill="#fff"/><path d="M12.053 40.769c.147-.213.306-.417.476-.61 2.828-3.236 10.858-7.12 22.611-10.937 11.851-3.848 26.052-7.165 39.989-9.34 13.937-2.175 25.916-2.942 33.718-2.161 4.236.428 6.961 1.276 8.101 2.493l11.627-2.28a3.868 3.868 0 0 0-.792-.808c-1.643-1.284-4.823-2.169-9.448-2.63-4.626-.462-10.428-.479-17.29-.057-7.091.443-14.99 1.328-23.483 2.656a343.891 343.891 0 0 0-25.518 4.989c-8.172 1.918-15.863 4.048-22.86 6.32-7.028 2.28-12.997 4.594-17.754 6.876-4.943 2.37-8.346 4.6-10.118 6.625-.31.348-.585.725-.824 1.126l11.565-2.262Z" fill="gold"/><path d="M116.095 38.935a15.87 15.87 0 0 1-4.594 11.176 15.625 15.625 0 0 1-11.091 4.63H12.904v-6.9c0-1.83.721-3.585 2.005-4.879a6.82 6.82 0 0 1 5.462-1.993 13.9 13.9 0 0 1 .335-7.802 13.797 13.797 0 0 1 4.484-6.369 13.606 13.606 0 0 1 14.801-1.395 22.963 22.963 0 0 1-.196-2.993A22.525 22.525 0 0 1 44.522 8.6 22.226 22.226 0 0 1 56.691.657 22.086 22.086 0 0 1 71.13 1.96a22.314 22.314 0 0 1 10.576 9.991 11.904 11.904 0 0 1 6.77-3.337 11.863 11.863 0 0 1 7.404 1.412 12.004 12.004 0 0 1 5.092 5.6 12.126 12.126 0 0 1 .749 7.557 15.638 15.638 0 0 1 10.234 5.052 15.877 15.877 0 0 1 4.14 10.7Z" fill="#fff"/><path d="M43.408 31.377a4.3 4.3 0 0 1 1.3-.71c.46-.153 1.019-.23 1.676-.23.658 0 1.233.148 1.727.445.504.297.756.616.756.957 0 .418-.236.655-.707.71-.11-.242-.356-.462-.74-.66-.383-.21-.838-.314-1.364-.314-.735 0-1.343.264-1.825.793-.483.517-.724 1.276-.724 2.277 0 1.002.247 1.766.74 2.294s1.085.792 1.776.792c1.096 0 1.836-.357 2.22-1.072.207 0 .383.066.525.198.143.12.214.28.214.478 0 .385-.263.738-.79 1.057-.525.308-1.128.462-1.808.462-.668 0-1.238-.077-1.71-.231a4.384 4.384 0 0 1-1.282-.726c-.395-.33-.707-.77-.937-1.32-.23-.55-.345-1.19-.345-1.915 0-.738.115-1.387.345-1.948.241-.572.559-1.018.953-1.337Zm9.407-.924c2.323 0 3.485 1.084 3.485 3.251v3.268c0 .605.23.99.69 1.155-.164.418-.47.628-.92.628-.329 0-.592-.116-.79-.347-.185-.242-.279-.556-.279-.94-.69.924-1.583 1.386-2.68 1.386-.887 0-1.589-.226-2.104-.677-.504-.462-.756-1.078-.756-1.849 0-.78.296-1.413.888-1.898.603-.483 1.414-.726 2.433-.726.614 0 1.129.066 1.545.198.34.121.543.198.609.231v-.726c0-.671-.17-1.144-.51-1.42-.34-.285-.855-.428-1.546-.428-.975 0-1.731.374-2.268 1.122-.46-.066-.69-.28-.69-.644 0-.418.284-.786.854-1.105.57-.32 1.25-.479 2.039-.479Zm2.12 4.737c-.69-.308-1.37-.462-2.038-.462-.669 0-1.184.143-1.545.429-.362.286-.543.66-.543 1.122 0 .451.153.814.46 1.09.318.263.778.395 1.381.395.614 0 1.146-.22 1.595-.66.46-.44.69-.974.69-1.6v-.314Zm3.588-4.605h.115c.416 0 .625.21.625.627v.809c.208-.418.537-.787.986-1.106.45-.319.965-.479 1.545-.479.888 0 1.612.27 2.17.81.57.527.856 1.37.856 2.524v4.324c0 .22-.05.38-.148.48-.099.098-.258.148-.477.148h-.132c-.405 0-.608-.21-.608-.628V33.82c0-.803-.17-1.375-.51-1.717-.34-.34-.833-.511-1.48-.511-.646 0-1.172.264-1.578.792-.405.528-.608 1.227-.608 2.096v3.614c0 .419-.214.628-.641.628h-.115c-.22 0-.379-.05-.477-.149-.099-.099-.148-.258-.148-.479v-6.882c0-.418.208-.627.625-.627Zm10.631 5.777-.74-.034c-.263 0-.487.072-.674.215-.186.132-.279.28-.279.446 0 .418.35.627 1.052.627h1.217c2.334 0 3.502.72 3.502 2.162 0 .76-.368 1.375-1.102 1.848-.723.474-1.655.732-2.795.776h-.394c-.932 0-1.727-.187-2.384-.561-.658-.374-.987-.814-.987-1.32 0-.242.055-.435.165-.578a.685.685 0 0 1 .46-.248c.208.43.575.787 1.102 1.073.526.286 1.145.43 1.857.43h.115c.822 0 1.464-.127 1.924-.38.471-.253.707-.572.707-.957 0-.375-.208-.65-.625-.826-.405-.165-1.112-.247-2.12-.247-.998 0-1.75-.1-2.253-.297-.504-.198-.756-.583-.756-1.156 0-.572.4-1.023 1.2-1.353-.954-.54-1.43-1.398-1.43-2.575 0-.935.317-1.661.953-2.178.636-.517 1.42-.776 2.351-.776.471 0 .904.099 1.299.297.405.198.712.413.92.644.417-.275.626-.776.626-1.502.295 0 .559.093.789.28.23.177.345.402.345.677 0 .55-.406.946-1.217 1.188.241.33.362.815.362 1.453 0 .935-.307 1.65-.92 2.145-.604.484-1.36.727-2.27.727Zm1.382-4.374c-.362-.32-.823-.479-1.382-.479-.559 0-1.025.16-1.397.479-.373.308-.56.787-.56 1.436 0 .649.187 1.133.56 1.452.372.308.838.462 1.397.462.56 0 1.02-.154 1.382-.462.372-.319.558-.803.558-1.452 0-.65-.186-1.128-.558-1.436Zm4.18-1.403h.1c.416 0 .624.203.624.61v.892c.186-.418.483-.792.888-1.122.416-.33.86-.495 1.331-.495.472 0 .828.093 1.07.28.252.187.377.418.377.693a.718.718 0 0 1-.345.627c-.34-.285-.701-.429-1.085-.429-.68 0-1.217.28-1.611.842-.395.55-.592 1.243-.592 2.08v3.531c0 .22-.05.38-.148.48-.099.098-.258.148-.477.148h-.131c-.22 0-.379-.05-.477-.149-.099-.099-.148-.258-.148-.479v-6.898c0-.408.208-.611.625-.611Zm7.87-.132c2.323 0 3.485 1.084 3.485 3.251v3.268c0 .605.23.99.69 1.155-.164.418-.47.628-.92.628-.329 0-.592-.116-.79-.347-.186-.242-.279-.556-.279-.94-.69.924-1.584 1.386-2.68 1.386-.888 0-1.59-.226-2.104-.677-.504-.462-.756-1.078-.756-1.849 0-.78.296-1.413.887-1.898.603-.483 1.414-.726 2.434-.726.613 0 1.128.066 1.545.198.34.121.543.198.609.231v-.726c0-.671-.17-1.144-.51-1.42-.34-.285-.855-.428-1.546-.428-.975 0-1.732.374-2.269 1.122-.46-.066-.69-.28-.69-.644 0-.418.285-.786.855-1.105.57-.32 1.25-.479 2.039-.479Zm2.12 4.737c-.69-.308-1.37-.462-2.038-.462-.669 0-1.184.143-1.546.429-.361.286-.542.66-.542 1.122 0 .451.153.814.46 1.09.318.263.778.395 1.381.395.614 0 1.145-.22 1.595-.66.46-.44.69-.974.69-1.6v-.314Z" fill="url('#paint0_linear_16_397')"/><path d="m128.515 17.853-11.786 2.14c.942 1.006 1.024 2.545-.258 4.01-2.825 3.236-10.856 7.12-22.609 10.936-11.85 3.848-26.053 7.167-39.989 9.342-13.935 2.175-25.912 2.942-33.72 2.167-7.242-.724-9.947-2.97-7.965-5.872l-11.64 2.36c-.894 1.54-.71 3.031.674 4.108 1.643 1.282 4.822 2.168 9.448 2.63 4.627.464 10.427.48 17.29.056 7.089-.443 14.99-1.328 23.481-2.656a344.355 344.355 0 0 0 25.519-4.989c8.171-1.918 15.861-4.049 22.86-6.32 7.028-2.282 12.996-4.596 17.754-6.877 4.943-2.37 8.346-4.599 10.117-6.626 1.429-1.646 1.663-3.22.824-4.409Z" fill="gold"/><defs><linearGradient id="paint0_linear_16_397" x1="54.924" y1="28.075" x2="66.63" y2="51.355" gradientUnits="userSpaceOnUse"><stop stop-color="#4971FF"/><stop offset=".977" stop-color="#294091"/></linearGradient></defs></svg>