<svg width="28" height="33" fill="none" xmlns="http://www.w3.org/2000/svg"><path d="m0 15.442 13.98-13.24V.546L0 13.787v1.655ZM0 18.074v1.655l13.98-13.24V4.833L0 18.074ZM0 22.316v1.656L13.98 10.73V9.076L0 22.316ZM0 26.604v1.654l13.98-13.24v-1.655L0 26.604ZM13.98 17.605 0 30.846V32.5l13.98-13.24v-1.655ZM28 13.785 15.093 1.56v1.654L28 15.439v-1.654ZM28 18.073 15.093 5.848v1.655L28 19.727v-1.654ZM28 22.314 15.093 10.09v1.655L28 23.97v-1.657ZM28 26.602 15.093 14.378v1.654L28 28.257v-1.655ZM28 30.844 15.093 18.62v1.654L28 32.498v-1.654Z" fill="#A6A6A6"/><path d="m13.928 19.225.011-.012V17.56l-.011.011-.014-.01v.022l-.017.017v1.654l.03-.028ZM13.914 13.318v.022l-.017.017v1.655l.03-.029.012-.011v-1.654l-.011.01-.014-.01ZM13.939 9.052V9.03l-.011.01-.014-.01v.022l-.017.017v1.654l.03-.028.012-.011V9.052ZM13.939 4.81v-.022l-.011.011-.014-.011v.023l-.017.016v1.655l.03-.029.012-.01V4.81ZM13.928 2.166l.011-.012V.5l-.011.011L13.914.5v.023l-.017.017v1.654l.03-.028Z" fill="#fff"/></svg>