<svg width="512" height="512" fill="none" xmlns="http://www.w3.org/2000/svg"><g clip-path="url('#clip0_16_2')"><path d="M90.123 298.446c.463-.67.965-1.313 1.504-1.924 8.943-10.195 34.343-22.431 71.514-34.457 37.482-12.124 82.396-22.574 126.476-29.427 44.081-6.852 81.966-9.269 106.643-6.81 13.397 1.348 22.015 4.021 25.622 7.856l36.774-7.182a12.254 12.254 0 0 0-2.506-2.548c-5.195-4.044-15.254-6.833-29.882-8.288-14.629-1.455-32.981-1.507-54.685-.177-22.427 1.395-47.411 4.184-74.269 8.368a1091.273 1091.273 0 0 0-80.71 15.717c-25.845 6.044-50.171 12.757-72.301 19.916-22.228 7.182-41.108 14.471-56.153 21.663-15.634 7.466-26.396 14.49-32 20.873a23.033 23.033 0 0 0-2.606 3.547l36.579-7.127Z" fill="gold"/><path d="M419.183 292.668a49.899 49.899 0 0 1-14.529 35.212 49.508 49.508 0 0 1-35.077 14.585H92.813v-21.737a21.782 21.782 0 0 1 6.342-15.371 21.61 21.61 0 0 1 17.275-6.278 43.635 43.635 0 0 1 1.06-24.582 43.47 43.47 0 0 1 14.18-20.069 43.175 43.175 0 0 1 46.813-4.394 72.037 72.037 0 0 1-.621-9.432 70.793 70.793 0 0 1 14.953-43.512 70.325 70.325 0 0 1 38.486-25.02 70.102 70.102 0 0 1 45.668 4.101 70.46 70.46 0 0 1 33.45 31.48 37.712 37.712 0 0 1 21.411-10.516 37.643 37.643 0 0 1 23.42 4.449 37.862 37.862 0 0 1 16.102 17.644 38.052 38.052 0 0 1 2.37 23.81 49.533 49.533 0 0 1 32.369 15.918 49.91 49.91 0 0 1 13.092 33.712Z" fill="#fff"/><path d="M189.292 268.856c1.283-1.005 2.652-1.751 4.108-2.236 1.456-.485 3.224-.728 5.304-.728s3.9.468 5.46 1.404c1.595.936 2.392 1.941 2.392 3.016 0 1.317-.745 2.063-2.236 2.236-.347-.763-1.127-1.456-2.34-2.08-1.213-.659-2.652-.988-4.316-.988-2.323 0-4.247.832-5.772 2.496-1.525 1.629-2.288 4.021-2.288 7.176 0 3.155.78 5.564 2.34 7.228 1.56 1.664 3.432 2.496 5.616 2.496 3.467 0 5.807-1.127 7.02-3.38.659 0 1.213.208 1.664.624.451.381.676.884.676 1.508 0 1.213-.832 2.323-2.496 3.328-1.664.971-3.571 1.456-5.72 1.456-2.115 0-3.917-.243-5.408-.728a13.876 13.876 0 0 1-4.056-2.288c-1.248-1.04-2.236-2.427-2.964-4.16-.728-1.733-1.092-3.744-1.092-6.032 0-2.323.364-4.368 1.092-6.136.763-1.803 1.768-3.207 3.016-4.212Zm29.75-2.912c7.349 0 11.024 3.415 11.024 10.244v10.296c0 1.907.728 3.12 2.184 3.64-.52 1.317-1.491 1.976-2.912 1.976-1.04 0-1.872-.364-2.496-1.092-.589-.763-.884-1.751-.884-2.964-2.184 2.912-5.009 4.368-8.476 4.368-2.808 0-5.027-.711-6.656-2.132-1.595-1.456-2.392-3.397-2.392-5.824 0-2.461.936-4.455 2.808-5.98 1.907-1.525 4.472-2.288 7.696-2.288 1.941 0 3.571.208 4.888.624 1.075.381 1.716.624 1.924.728v-2.288c0-2.115-.537-3.605-1.612-4.472-1.075-.901-2.704-1.352-4.888-1.352-3.085 0-5.477 1.179-7.176 3.536-1.456-.208-2.184-.884-2.184-2.028 0-1.317.901-2.479 2.704-3.484 1.803-1.005 3.952-1.508 6.448-1.508Zm6.708 14.924c-2.184-.971-4.333-1.456-6.448-1.456s-3.744.451-4.888 1.352c-1.144.901-1.716 2.08-1.716 3.536 0 1.421.485 2.565 1.456 3.432 1.005.832 2.461 1.248 4.368 1.248 1.941 0 3.623-.693 5.044-2.08 1.456-1.387 2.184-3.068 2.184-5.044v-.988Zm11.345-14.508h.364c1.318 0 1.976.659 1.976 1.976v2.548c.659-1.317 1.699-2.479 3.12-3.484 1.422-1.005 3.051-1.508 4.888-1.508 2.808 0 5.096.849 6.864 2.548 1.803 1.664 2.704 4.316 2.704 7.956v13.624c0 .693-.156 1.196-.468 1.508-.312.312-.814.468-1.508.468h-.416c-1.282 0-1.924-.659-1.924-1.976v-13.468c0-2.531-.537-4.333-1.612-5.408-1.074-1.075-2.634-1.612-4.68-1.612-2.045 0-3.709.832-4.992 2.496-1.282 1.664-1.924 3.865-1.924 6.604v11.388c0 1.317-.676 1.976-2.028 1.976h-.364c-.693 0-1.196-.156-1.508-.468-.312-.312-.468-.815-.468-1.508v-21.684c0-1.317.659-1.976 1.976-1.976Zm33.626 18.2-2.34-.104c-.832 0-1.543.225-2.132.676-.59.416-.884.884-.884 1.404 0 1.317 1.109 1.976 3.328 1.976h3.848c7.384 0 11.076 2.271 11.076 6.812 0 2.392-1.162 4.333-3.484 5.824-2.288 1.491-5.235 2.305-8.84 2.444h-1.248c-2.947 0-5.46-.589-7.54-1.768s-3.12-2.565-3.12-4.16c0-.763.173-1.369.52-1.82a2.17 2.17 0 0 1 1.456-.78c.658 1.352 1.82 2.479 3.484 3.38 1.664.901 3.622 1.352 5.876 1.352h.364c2.6 0 4.628-.399 6.084-1.196 1.49-.797 2.236-1.803 2.236-3.016 0-1.179-.659-2.045-1.976-2.6-1.283-.52-3.519-.78-6.708-.78-3.155 0-5.53-.312-7.124-.936-1.595-.624-2.392-1.837-2.392-3.64 0-1.803 1.265-3.224 3.796-4.264-3.016-1.699-4.524-4.403-4.524-8.112 0-2.947 1.005-5.235 3.016-6.864 2.01-1.629 4.489-2.444 7.436-2.444 1.49 0 2.86.312 4.108.936 1.282.624 2.253 1.3 2.912 2.028 1.317-.867 1.976-2.444 1.976-4.732.936 0 1.768.295 2.496.884.728.555 1.092 1.265 1.092 2.132 0 1.733-1.283 2.981-3.848 3.744.762 1.04 1.144 2.565 1.144 4.576 0 2.947-.971 5.2-2.912 6.76-1.907 1.525-4.299 2.288-7.176 2.288Zm4.368-13.78c-1.144-1.005-2.6-1.508-4.368-1.508-1.768 0-3.242.503-4.42 1.508-1.179.971-1.768 2.479-1.768 4.524s.589 3.571 1.768 4.576c1.178.971 2.652 1.456 4.42 1.456 1.768 0 3.224-.485 4.368-1.456 1.178-1.005 1.768-2.531 1.768-4.576 0-2.045-.59-3.553-1.768-4.524Zm13.224-4.42h.312c1.318 0 1.976.641 1.976 1.924v2.808c.59-1.317 1.526-2.496 2.808-3.536 1.318-1.04 2.722-1.56 4.212-1.56 1.491 0 2.618.295 3.38.884.798.589 1.196 1.317 1.196 2.184 0 .832-.364 1.491-1.092 1.976-1.074-.901-2.218-1.352-3.432-1.352-2.149 0-3.848.884-5.096 2.652-1.248 1.733-1.872 3.917-1.872 6.552v11.128c0 .693-.156 1.196-.468 1.508-.312.312-.814.468-1.508.468h-.416c-.693 0-1.196-.156-1.508-.468-.312-.312-.468-.815-.468-1.508v-21.736c0-1.283.659-1.924 1.976-1.924Zm24.888-.416c7.349 0 11.024 3.415 11.024 10.244v10.296c0 1.907.728 3.12 2.184 3.64-.52 1.317-1.491 1.976-2.912 1.976-1.04 0-1.872-.364-2.496-1.092-.59-.763-.884-1.751-.884-2.964-2.184 2.912-5.01 4.368-8.476 4.368-2.808 0-5.027-.711-6.656-2.132-1.595-1.456-2.392-3.397-2.392-5.824 0-2.461.936-4.455 2.808-5.98 1.906-1.525 4.472-2.288 7.696-2.288 1.941 0 3.57.208 4.888.624 1.074.381 1.716.624 1.924.728v-2.288c0-2.115-.538-3.605-1.612-4.472-1.075-.901-2.704-1.352-4.888-1.352-3.086 0-5.478 1.179-7.176 3.536-1.456-.208-2.184-.884-2.184-2.028 0-1.317.901-2.479 2.704-3.484 1.802-1.005 3.952-1.508 6.448-1.508Zm6.708 14.924c-2.184-.971-4.334-1.456-6.448-1.456-2.115 0-3.744.451-4.888 1.352-1.144.901-1.716 2.08-1.716 3.536 0 1.421.485 2.565 1.456 3.432 1.005.832 2.461 1.248 4.368 1.248 1.941 0 3.622-.693 5.044-2.08 1.456-1.387 2.184-3.068 2.184-5.044v-.988Z" fill="url('#paint0_linear_16_2')"/><path d="m458.466 226.246-37.278 6.741c2.982 3.17 3.239 8.019-.813 12.635-8.937 10.195-34.337 22.435-71.509 34.457-37.481 12.124-82.4 22.579-126.476 29.431-44.076 6.853-81.956 9.27-106.648 6.829-22.908-2.282-31.464-9.358-25.194-18.502l-36.814 7.438c-2.83 4.849-2.249 9.549 2.132 12.943 5.196 4.039 15.25 6.829 29.883 8.288 14.633 1.46 32.976 1.511 54.68.172 22.423-1.394 47.41-4.184 74.269-8.368a1092.83 1092.83 0 0 0 80.71-15.717c25.845-6.043 50.166-12.756 72.301-19.915 22.228-7.187 41.103-14.477 56.153-21.664 15.634-7.465 26.396-14.49 31.999-20.877 4.52-5.188 5.258-10.144 2.605-13.891Z" fill="gold"/></g><defs><linearGradient id="paint0_linear_16_2" x1="224.9" y1="236.137" x2="293.159" y2="327.166" gradientUnits="userSpaceOnUse"><stop stop-color="#4971FF"/><stop offset=".977" stop-color="#294091"/></linearGradient><clipPath id="clip0_16_2"><path fill="#fff" transform="translate(52 170)" d="M0 0h408v173H0z"/></clipPath></defs></svg>