<svg width="494" height="196" fill="none" xmlns="http://www.w3.org/2000/svg"><path d="M304.01 0c41.89 0 76.61 30.96 82.52 71.22 1.47-.13 2.96-.21 4.47-.21 28.83 0 52.3 24.5 52.94 54.9 4.82-2.7 10.35-4.3 16.26-4.3 18.45 0 33.44 15 33.44 33.5 0 18.4-18.88 38.7-37.33 38.7-156.39.5-260.29 2-416.14 1-20.98 0-40.17-9.9-40.17-30.9s17.03-38 38.01-38c5.47 0 10.66 1.1 15.36 3.2 8.52-14.1 23.98-23.5 41.65-23.5 6.95 0 13.58 1.4 19.57 4.1 3.33-21.43 21.85-37.84 44.19-37.84 17.64 0 32.89 10.22 40.18 25.04 6.52-3.8 13.96-6.32 21.9-6.98-.16-2.16-.26-4.32-.26-6.52C220.6 37.38 257.97 0 304.01 0Z" fill="#fff"/></svg>