<svg width="459" height="182" fill="none" xmlns="http://www.w3.org/2000/svg"><path d="M176.1 0C137.2 0 105 28.75 99.5 66.14c-1.4-.12-2.8-.2-4.2-.2-26.8 0-48.6 22.73-49.1 50.95-4.5-2.5-9.7-3.93-15.1-3.93-17.2 0-31.1 13.92-31.1 31.06 0 17.13 17.5 35.92 34.7 35.92 145.2.47 241.7 1.92 386.4.97 19.49 0 37.31-9.24 37.31-28.72 0-19.48-15.82-35.3-35.3-35.3-5.08 0-9.9 1.08-14.27 3.01-7.94-13.09-22.24-21.86-38.64-21.86-6.5 0-12.6 1.38-18.2 3.82-3.1-19.88-20.3-35.12-41-35.12-16.4 0-30.6 9.49-37.4 23.27-6-3.58-12.9-5.88-20.3-6.5.2-2 .3-4.01.3-6.05C253.6 34.71 218.8 0 176.1 0Z" fill="#fff"/></svg>