<svg width="50" height="42" fill="none" xmlns="http://www.w3.org/2000/svg"><path d="M29.143 23.85a1 1 0 1 0 2 0h-2Zm2-8.309a1 1 0 1 0-2 0h2Zm17.153-5.521a1 1 0 1 0 1.408-1.42l-1.408 1.42Zm-2.782-5.575a1 1 0 1 0-1.409 1.42l1.409-1.42ZM25.952 0a1 1 0 1 0 0 2V0Zm8.381 2a1 1 0 1 0 0-2v2ZM1 9.493a1 1 0 1 0 0 2v-2Zm13.21 2a1 1 0 1 0 0-2v2ZM2.925 16.232a1 1 0 1 0 0 2v-2Zm7.434 2a1 1 0 1 0 0-2v2ZM4.851 22.97a1 1 0 1 0 0 2v-2Zm5.508 2a1 1 0 0 0 0-2v2ZM30.143 39.47c-8.713 0-15.762-7.001-15.762-15.62h-2c0 9.74 7.96 17.62 17.762 17.62v-2ZM14.38 23.85c0-8.617 7.049-15.618 15.762-15.618v-2c-9.802 0-17.762 7.88-17.762 17.619h2ZM30.143 8.233c8.713 0 15.762 7 15.762 15.619h2c0-9.739-7.96-17.619-17.762-17.619v2Zm15.762 15.619c0 8.618-7.049 15.619-15.762 15.619v2c9.801 0 17.762-7.88 17.762-17.62h-2Zm-14.762 0v-8.31h-2v8.31h2ZM49.704 8.599l-4.19-4.154-1.409 1.42 4.19 4.155 1.41-1.42ZM25.952 2h8.381V0h-8.38v2ZM1 11.493h13.21v-2H1v2Zm1.925 6.739h7.434v-2H2.925v2Zm1.926 6.739h5.508v-2H4.851v2Z" fill="#E8C400"/></svg>