<svg width="465" height="370" fill="none" xmlns="http://www.w3.org/2000/svg"><path opacity=".3" d="m430.265 101.584-1.14-.658-.136-.079-22.449-12.965 22.449 12.965 33.461-19.325-33.461-19.326-33.461 19.325-1.274-.737 34.735-20.06.318.184L465 81.522l-34.735 20.062Zm-2.55 0-11.012-6.36 11.012 6.36Z" fill="#D1EBFA"/><path opacity=".3" d="m360.824 101.584 16.73-9.663-16.729 9.663h-.001Zm-2.55 0-18.81-10.865 18.811 10.865h-.001Zm1.276-.737-16.731-9.663 16.731 9.663 20.29-11.72-20.29 11.72Zm33.459-19.325L359.55 62.196l-26.586 15.356v-1.473l26.586-15.355 34.735 20.06-1.276.738Z" fill="#D1EBFA"/><path opacity=".3" d="m395.53 121.489 23.109-13.347-23.107 13.347h-.002Zm-1.273-.737-33.463-19.325-1.18-.683-.094-.054 20.291-11.72 13.169-7.606 1.276-.737 1.274.737 11.012 6.361 22.449 12.966-1.274.737-11.013-6.36L394.256 82.1l-16.731 9.662-16.731 9.664 33.463 19.325 12.03-6.948-12.03 6.948Zm36.009-19.324-.956-.553-.183-.106 1.139.659Z" fill="#D1EBFA"/><path opacity=".3" d="m430.266 141.728-1.275-.736-33.464-19.325-1.131-.654-.142-.083 12.031-6.948 21.429-12.376 1.274-.737.136.078.183.106.957.553L465 121.668l-34.734 20.06Zm-34.739-20.061 33.464 19.325 33.459-19.324-33.462-19.327-10.351 5.979-23.11 13.347Z" fill="#D1EBFA"/><path d="M301.308 68.544h-.001l1.276-.736-1.275.736Z" fill="#D1EBFA"/><path opacity=".3" d="m332.964 117.533 9.855-5.691-9.855 5.691Zm0-1.472 5.02-2.899-5.02 2.899Zm27.86-14.619-.957-.552-.224-.13 1.181.682Zm-2.549 0-18.811-10.865-6.5-3.754V85.35l9.855 5.692 16.731 9.663-1.276.737M360.825 141.729l14.649-8.46-14.648 8.462-.001-.002Zm-1.274-.735-26.587-15.356 26.587 15.356 21.997-12.706-21.997 12.706Zm36.008-19.326-.956-.553-.175-.101 1.131.654Zm-2.548 0-33.461-19.327-16.731 9.664-9.855 5.692v-1.473l5.02-2.899 20.29-11.72 1.276-.736.093.054.224.13.957.552 33.462 19.326-1.275.736" fill="#D1EBFA"/><path opacity=".3" d="m395.531 161.633 9.622-5.557-9.622 5.557Zm-1.275-.736-33.462-19.325v-.001l-1.116-.645-.158-.091 21.998-12.706 11.462-6.621 1.276-.736.141.083.175.102.957.552 33.462 19.326-1.275.736-33.46-19.326-18.812 10.866-14.65 8.46 33.463 19.326 16.729-9.663-16.729 9.663" fill="#D1EBFA"/><path opacity=".3" d="m430.265 181.537-1.074-.621-.202-.116-33.461-19.325-1.116-.645-.158-.091 16.73-9.664 16.73-9.663 1.275-.736 1.276.736L465 161.476l-34.735 20.061Zm-34.737-20.062 33.461 19.325 33.461-19.324-33.461-19.327-23.839 13.768-9.622 5.558Z" fill="#D1EBFA"/><path d="M266.575 88.785h-.001l1.275-.736-1.274.736Z" fill="#D1EBFA"/><path opacity=".3" d="m332.964 157.68 4.589-2.651-4.589 2.651Zm0-1.473v-.001l10.663-6.159-10.663 6.16Zm27.861-14.62-.957-.552-.16-.094 1.117.645v.001Zm-2.548-.001-25.313-14.618v-1.473l26.587 15.355-1.276.736" fill="#D1EBFA"/><path opacity=".3" d="m360.826 181.537 16.731-9.662-16.73 9.662h-.001Zm-1.274-.736v-.001l-26.588-15.355 26.588 15.355 18.812-10.864-18.812 10.865Zm36.009-19.326-.956-.552-.16-.093 1.116.645Zm-2.549 0-33.461-19.326-21.998 12.706-4.589 2.65v-1.472l10.663-6.16 14.648-8.461 1.276-.736.157.091.16.093.957.553 33.461 19.326-1.274.736Z" fill="#D1EBFA"/><path opacity=".3" d="m395.531 201.778 20.291-11.72-20.291 11.72Zm-1.276-.736-33.461-19.326-1.073-.621-.201-.115 18.812-10.866 14.648-8.461 1.275-.736.158.091.16.094.957.551 33.461 19.327-1.274.736-33.462-19.326-16.73 9.663-16.731 9.663 33.463 19.325 16.729-9.662-16.729 9.662-.002.001Zm36.011-19.326-.956-.552-.118-.069 1.074.621Z" fill="#D1EBFA"/><path opacity=".3" d="m430.265 221.683-1.111-.641-.165-.096-33.461-19.325-1.06-.613-.214-.124 16.73-9.662 16.73-9.664 1.274-.737.202.116.117.07.957.551L465 201.621l-34.735 20.062Zm-34.737-20.062 33.461 19.325 33.461-19.325-33.462-19.326-13.169 7.606-20.291 11.72ZM152.394 101.583l21.429-12.376-21.429 12.376Zm-1.275-.737-33.461-19.325-1.159-.67-.115-.067 34.735-20.06.318.184 26.273 15.174v1.472l-26.591-15.358-33.461 19.325 33.462 19.325 10.351-5.978-10.351 5.978" fill="#D1EBFA"/><path opacity=".3" d="m177.708 117.54-4.142-2.392 4.142 2.391v.001Zm0-1.472-14.304-8.264 14.304 8.262v.002Zm-25.316-14.623-1.274-.737 10.351-5.979 16.239-9.379v1.473l-3.887 2.245-21.429 12.377ZM332.964 197.825l14.557-8.407-14.557 8.407Zm0-1.473 6.704-3.871-6.704 3.871Zm27.862-14.62-.956-.551-.118-.069 1.074.62Zm-2.548 0-25.314-14.619v-1.473l26.588 15.357-1.275.735" fill="#D1EBFA"/><path opacity=".3" d="m360.827 221.683 18.636-10.763-18.635 10.763h-.001Zm-2.549 0-16.731-9.663 16.732 9.663h-.001Zm1.275-.737-11.012-6.361 11.012 6.361 11.462-6.62-11.462 6.62Zm36.009-19.325-.956-.553-.104-.06 1.06.613Zm-2.549 0-33.461-19.326-12.031 6.948-14.557 8.407v-1.472l6.704-3.872 18.609-10.748 1.275-.737v.001l.2.115.118.07.956.551 33.461 19.327-1.274.736Z" fill="#D1EBFA"/><path opacity=".3" d="m395.531 241.924 14.649-8.461-14.649 8.461Zm-1.274-.737-33.463-19.325-1.189-.688-.085-.049 11.462-6.62 21.998-12.706 1.276-.737.214.125.103.06.957.552 33.461 19.326-1.274.737-33.461-19.326-14.826 8.563-18.636 10.763 33.463 19.325 16.729-9.663-16.729 9.663Zm36.009-19.325-.956-.553-.155-.089 1.111.642Z" fill="#D1EBFA"/><path opacity=".3" d="m430.265 261.828-1.16-.67-.116-.067-33.461-19.325-1.159-.67-.115-.067 16.73-9.664 16.73-9.662 1.274-.737.165.096.154.088.957.553L465 241.766l-34.735 20.062Zm-34.737-20.062 33.461 19.325 33.461-19.325-33.462-19.327-18.81 10.865-14.65 8.462ZM82.936 101.584l16.73-9.663-16.729 9.663h-.001Zm-2.549 0L45.652 81.522l36.01-20.799.318.185 34.418 19.877-1.275.737-33.461-19.326L48.2 81.522l33.46 19.325 16.731-9.662-16.73 9.662-1.275.737Zm37.284-20.062-.956-.553-.203-.117 1.159.67Z" fill="#D1EBFA"/><path opacity=".3" d="m117.66 121.489 16.731-9.663-16.731 9.663Zm-1.274-.737-34.418-19.878-.318-.184 16.73-9.662 16.73-9.664 1.275-.737.115.067.203.117.956.553 33.461 19.326-1.274.737-33.461-19.326-16.73 9.662-16.73 9.664 33.461 19.325 16.73-9.663-16.73 9.663ZM152.394 141.731v-.002l21.376-12.345-21.376 12.347Zm-1.275-.737-33.461-19.326-1.159-.67-.115-.067 16.729-9.663 16.731-9.663 1.275-.736 1.274.736 11.012 6.36 14.304 8.263v1.472l-4.141-2.392-22.449-12.967-16.731 9.664-16.73 9.663 33.461 19.326 18.611-10.748-18.61 10.748" fill="#D1EBFA"/><path opacity=".3" d="m177.708 157.684-9.859-5.695 9.859 5.695Zm0-1.473-2.866-1.655 2.866 1.655Zm-25.315-14.622-1.275-.736 18.611-10.748 7.979-4.61v1.473l-3.939 2.275-21.376 12.346ZM324.778 241.204l-12.469-7.2 12.469 7.2 4.843-2.797-4.842 2.797h-.001Zm8.782-3.599 4.577-2.643-4.577 2.643Zm-.509-1.178h-.001l14.836-8.569-14.835 8.569Zm27.736-14.547-.957-.553-.232-.135 1.189.688Zm-2.548 0-16.732-9.664-8.583-4.958v-1.473l15.577 8.997 11.012 6.361-1.276.737" fill="#D1EBFA"/><path opacity=".3" d="m360.797 261.828 16.731-9.662-16.73 9.662h-.001Zm-2.549 0-20.872-12.056 20.873 12.056h-.001Zm1.275-.737-11.012-6.361 11.012 6.361 20.291-11.719-20.291 11.719Zm36.009-19.325-.957-.553-.202-.117 1.159.67Zm-2.549 0-33.461-19.327-21.376 12.346-4.577 2.643a4.361 4.361 0 0 0-.509-1.178l14.835-8.568 10.351-5.979 1.276-.737.085.05.232.134.957.553 33.462 19.326-1.275.737Zm-67.37-.261-.826-.477 4.843-2.797c.083.101.123.188.123.254 0 .251-.359.833-1.348 1.404l-2.792 1.616Z" fill="#D1EBFA"/><path opacity=".3" d="m395.531 282.068 14.825-8.562-14.825 8.563v-.001Zm-1.275-.736-33.462-19.325-1.19-.688-.084-.049 20.291-11.719 13.169-7.607 1.276-.737.115.067.201.118.958.552 33.461 19.326-1.275.736-33.46-19.326-16.731 9.665-16.731 9.662 33.463 19.325 22.065-12.744-22.065 12.744h-.001Zm36.01-19.325-.956-.553-.204-.117 1.16.67Z" fill="#D1EBFA"/><path opacity=".3" d="m430.265 301.972-1.025-.592-.251-.144-33.461-19.325v-.002l-1.099-.634-.175-.101 22.066-12.745 11.394-6.582 1.274-.736.115.067.204.117.957.553L465 281.909l-34.735 20.063Zm-34.737-20.063 33.461 19.327 33.461-19.327-33.462-19.325-18.634 10.763-14.826 8.562ZM82.936 141.729l18.812-10.864-18.81 10.866-.002-.002Zm-2.548 0L45.65 121.668l34.735-20.063 1.275-.736.317.184 34.419 19.878-1.275.737-33.461-19.327-33.46 19.327 33.46 19.326 22.068-12.745-22.067 12.745-1.274.735Zm37.283-20.061-.956-.553-.203-.117 1.159.67Z" fill="#D1EBFA"/><path opacity=".3" d="m117.66 161.633 11.395-6.581-11.395 6.581Zm-1.274-.736-34.418-19.878-.318-.184 22.067-12.745 11.393-6.581 1.275-.737.115.067.203.118.956.552 33.461 19.326-1.274.736-33.461-19.326-14.649 8.461-18.812 10.865 33.462 19.326 14.65-8.461-14.65 8.461Z" fill="#D1EBFA"/><path opacity=".3" d="m152.394 181.537 12.031-6.948-12.031 6.948Zm-1.275-.736-33.461-19.325v-.001l-1.117-.645-.157-.091 14.649-8.461 18.811-10.866 1.274-.736 1.275.736v.001l22.449 12.966 2.866 1.656v1.473l-9.859-5.696-16.731-9.663-22.066 12.745-11.394 6.581 33.462 19.326 18.439-10.65-18.439 10.65M177.706 196.353l-25.314-14.621-1.074-.619-.2-.116 18.438-10.651 8.15-4.706v1.473l-13.283 7.671-12.031 6.948 25.314 14.621Z" fill="#D1EBFA"/><path d="m323.514 241.723-12.47-7.202 1.276-.735 12.468 7.2-1.274.737Z" fill="#D1EBFA"/><path opacity=".3" d="m326.062 282.068 16.73-9.662-16.73 9.663v-.001Zm-1.275-.736-18.421-10.639 18.421 10.639 13.719-7.923-13.719 7.923Zm36.009-19.324-.956-.553-.234-.134 1.19.687Zm-2.548 0-20.873-12.056-9.085-5.248 1.274-.738 18.946 10.944 11.012 6.361-1.275.736.001.001Zm-39.193-16.525-.835-.483 5.292-3.056 1.274-.737.826.478-6.557 3.798Z" fill="#D1EBFA"/><path opacity=".3" d="m360.798 301.971 18.439-10.649-18.439 10.649Zm-1.275-.736-33.462-19.326.001-.001-1.16-.669-.115-.067 13.719-7.923 19.74-11.401v-.001l1.276-.736.084.05.233.134.957.553 33.461 19.326-1.274.735-33.461-19.325-16.731 9.662-16.729 9.662 33.461 19.327 12.084-6.979-12.084 6.979Zm36.009-19.324-.956-.553-.143-.083 1.099.634" fill="#D1EBFA"/><path d="m395.53 322.213 13.17-7.605-13.17 7.605Zm-2.549 0-11.012-6.361 11.012 6.361Zm1.276-.736-22.45-12.967 22.45 12.966 16.729-9.662-16.729 9.663Zm36.009-19.326-.956-.552-.068-.04 1.024.592Zm-2.549 0-33.461-19.326-15.022 8.675-18.44 10.65-1.274-.736 12.084-6.98 21.376-12.346 1.276-.736.174.102.143.083.957.552 33.461 19.326-1.274.736Z" fill="#D1EBFA"/><path opacity=".3" d="m428.989 342.854-.317-.185-34.418-19.878 1.273-.737-1.273-.735 16.729-9.664 16.731-9.663 1.274-.736.251.144.068.04.957.552L465 322.054l-36.011 20.8Zm-33.462-20.8 33.462 19.326 33.461-19.326-33.462-19.325-20.29 11.72-13.171 7.605ZM82.936 181.537l16.73-9.662-16.729 9.662h-.001Zm-2.55 0-34.735-20.064 34.735-20.061 1.275-.736.317.184 34.419 19.879-1.275.736-33.461-19.326-33.46 19.324 33.46 19.328 16.731-9.663-16.73 9.663-1.276.736Zm37.285-20.061-.956-.553-.16-.093 1.116.645" fill="#D1EBFA"/><path opacity=".3" d="m117.66 201.778 16.731-9.663-16.731 9.663Zm-1.275-.736-34.417-19.878-.318-.184 16.73-9.664 16.73-9.663 1.275-.736.158.091.16.094.956.552 33.461 19.326-1.274.736-33.461-19.326-16.73 9.663-16.73 9.663 33.461 19.325 16.73-9.662-16.73 9.663v-.001l-.001.001Zm36.011-19.326-.957-.552-.117-.068 1.074.62Z" fill="#D1EBFA"/><path opacity=".3" d="m152.394 221.682 21.998-12.706-21.998 12.706Zm-1.274-.737h-.001l-33.461-19.325-1.076-.622-.198-.114 16.729-9.664 16.731-9.663 1.275-.736.2.116.118.068.956.552 25.314 14.621v1.472l-26.588-15.356-16.731 9.662-16.73 9.664 33.461 19.325 14.825-8.562-14.824 8.562ZM187.128 241.941l9.481-5.476-9.481 5.476Zm-1.275-.737-1.198-.692 1.198.692 9.481-5.475h.001l-9.482 5.475Zm-5.002-2.888-28.459-16.437-1.16-.671-.114-.066 14.824-8.563 11.762-6.794v1.473l-3.315 1.915-21.997 12.706 28.461 16.437h-.002Z" fill="#D1EBFA"/><path d="m187.127 242.022-1.276-.737 9.483-5.475 1.274.735-9.481 5.477Z" fill="#D1EBFA"/><path opacity=".3" d="m291.326 301.995 16.731-9.662-16.731 9.662Zm-1.275-.736-18.377-10.614 18.377 10.614 16.73-9.663-16.729 9.663h-.001Zm36.009-19.325-.955-.553-.204-.117 1.16.669-.001.001Zm-2.548-.001-18.421-10.639 1.273-.737 18.422 10.64-1.274.736ZM324.788 322.95v-.001.001Zm1.275-.737 16.73-9.662-16.73 9.662Zm-1.275-.736-33.461-19.326-1.16-.669-.114-.067 16.729-9.663 16.731-9.664 1.274-.736.115.067.204.118.955.552 33.462 19.326-1.275.736-33.461-19.326-16.73 9.663-16.73 9.663 33.461 19.326 20.292-11.72-20.292 11.72Z" fill="#D1EBFA"/><path opacity=".3" d="m359.523 342.854-.319-.185-34.417-19.878v-.001l1.275-.736-1.275-.735 20.291-11.72 13.168-7.607 1.276-.736 1.275.736 11.011 6.361 22.45 12.967 1.273.736-1.273.737h-.001l-34.734 20.061Zm-33.461-20.8 33.461 19.326 33.46-19.324-11.012-6.361-22.449-12.966-16.731 9.663-16.729 9.662ZM82.936 221.682l23.838-13.768-23.837 13.768h-.001Zm-2.55 0-34.735-20.064 34.734-20.061 1.276-.736.317.184 34.418 19.879-1.274.736-33.461-19.326-33.46 19.324 33.46 19.327 11.395-6.581-11.394 6.581-1.276.737Zm37.285-20.062-.956-.552-.12-.07 1.076.622Z" fill="#D1EBFA"/><path d="m117.66 241.924 16.731-9.663-16.731 9.663Zm-1.274-.737-34.418-19.878-.318-.184 11.394-6.581 22.066-12.745 1.275-.737v.001l.198.114.12.071.956.551 33.461 19.326-1.274.737-33.461-19.326-9.623 5.557-23.838 13.769 33.462 19.325 13.169-7.605-13.169 7.605Zm36.01-19.325-.957-.553-.204-.117 1.161.67Z" fill="#D1EBFA"/><path opacity=".3" d="m152.394 261.828 16.731-9.663-16.731 9.663Zm-1.275-.737-33.461-19.325-1.159-.67-.115-.067 13.169-7.606 20.291-11.72 1.274-.737h.001l.114.067.204.117.956.553 28.46 16.438a6.756 6.756 0 0 0-.905.949l-28.83-16.65-16.73 9.662-16.73 9.664 33.461 19.325 13.169-7.605-13.168 7.605h-.001Zm33.461-19.325-1.125-.65c.19-.162.427-.331.72-.501l.481-.278 1.198.692-1.274.737ZM187.128 282.068l11.462-6.62-11.462 6.621v-.001Zm-2.551 0-14.824-8.562 14.826 8.562h-.002Zm1.276-.736-22.066-12.744 22.066 12.744 16.646-9.615-16.646 9.615Zm-33.46-19.325-1.275-.737 13.169-7.606 15.442-8.919c.251.341.554.66.905.95l-11.511 6.648-16.73 9.664Zm42.481-14.116-9.021-5.211-1.353.782-1.012-.585a2.547 2.547 0 0 1-.248-.16l1.339-.773 1.274-.737 1.275.737 9.019 5.21-1.273.737Z" fill="#D1EBFA"/><path opacity=".3" d="m221.863 301.982 15.02-8.675-15.02 8.675Zm-1.275-.735-33.462-19.326.001-.001-1.134-.654-.142-.082 16.647-9.615 1.274.737-5.183 2.994-11.462 6.62 33.461 19.327 16.646-9.614-16.646 9.614Z" fill="#D1EBFA"/><path d="M255.321 322.948v-.001.001Zm1.275-.737 18.811-10.864-18.811 10.864Zm-2.55 0-22.449-12.966 22.449 12.966Zm1.275-.736-12.589-7.271 12.589 7.271 16.73-9.663-16.73 9.663Zm36.01-19.326-.957-.552-.203-.117 1.16.669Zm-2.55 0-18.375-10.614 1.273-.737 18.376 10.615-1.274.736Zm-66.921-.002-1.275-.735 16.647-9.614 1.274.736-1.626.938-15.021 8.675" fill="#D1EBFA"/><path opacity=".3" d="m290.054 342.854-.318-.185-34.417-19.878v-.001l1.274-.736-1.274-.735 16.729-9.664 16.731-9.663 1.274-.736h.001l.114.067.204.117.956.552 33.461 19.327 1.276.735-1.276.736v.001l-34.735 20.063Zm-33.461-20.8 33.461 19.326 33.461-19.326-33.462-19.325-14.648 8.461-18.812 10.864ZM82.937 261.827l12.084-6.978-12.084 6.978Zm-2.55-.001-34.736-20.061 34.734-20.062 1.276-.737.317.184 34.419 19.879-1.275.737-33.461-19.326-33.46 19.325 33.46 19.325 21.376-12.345-21.375 12.345-1.275.736Zm37.284-20.06-.956-.553-.203-.117 1.159.67ZM117.66 282.068l11.463-6.62-11.463 6.621v-.001Zm-2.549 0-16.73-9.663 16.73 9.663Zm1.275-.736-16.73-9.663 16.73 9.663 21.998-12.705-21.998 12.705Zm33.46-19.325-33.461-19.327-21.376 12.348-12.085 6.978-1.274-.737 21.375-12.345 12.085-6.98 1.275-.737.115.067.203.118.956.552 33.461 19.326-1.274.736" fill="#D1EBFA"/><path opacity=".3" d="m152.394 301.972 16.73-9.662-16.73 9.662Zm-1.275-.736-33.461-19.325v-.002l-1.14-.657-.134-.078 21.997-12.706 11.463-6.621 1.274-.736 1.275.737 11.394 6.581 22.066 12.745-1.274.735-14.826-8.562-18.635-10.763-21.998 12.705-11.462 6.62 33.461 19.327 16.73-9.663-16.729 9.663h-.001Zm36.008-19.325-.955-.553-.178-.103 1.134.654M184.579 322.213l-13.17-7.605 13.17 7.605Zm2.549 0 13.169-7.605-13.169 7.605Zm-1.275-.736-16.73-9.663 16.73 9.662 16.73-9.662-16.73 9.663Zm33.461-19.326-33.462-19.326-16.73 9.663-16.729 9.663-1.275-.736 16.73-9.664 16.728-9.663h.001l1.275-.736.141.082.177.103.956.552 33.462 19.326-1.275.736" fill="#D1EBFA"/><path opacity=".3" d="m220.588 342.854-.318-.184-34.419-19.879 1.276-.737-1.276-.735 16.731-9.664 16.729-9.663 1.276-.736 1.275.736 20.872 12.056 12.589 7.272 1.274.736-1.274.735-.001.002-34.734 20.061Zm-33.461-20.8 33.461 19.326 33.46-19.324-22.449-12.966-11.012-6.361-20.291 11.72-13.169 7.605ZM82.936 301.972l23.108-13.346-23.107 13.346h-.001Zm-2.548 0L45.65 281.909l34.735-20.062 1.275-.736 1.275.737 16.73 9.663 16.73 9.664-1.274.736-16.73-9.664-16.731-9.663-33.46 19.325 33.46 19.327 12.031-6.948-12.03 6.948-1.274.736Zm37.283-20.06-.956-.553-.183-.106 1.139.658" fill="#D1EBFA"/><path opacity=".3" d="M116.386 322.949h-.001.001Zm1.274-.737 21.431-12.376-21.431 12.376Zm-1.274-.736-34.418-19.878-.318-.184 12.03-6.948 21.43-12.378 1.275-.736.135.079.183.106.956.552 33.461 19.326-1.274.736-33.461-19.326-10.352 5.979-23.109 13.346 33.462 19.326 10.352-5.978-10.352 5.978Z" fill="#D1EBFA"/><path opacity=".3" d="m151.118 342.854-34.734-20.064 1.274-.737-1.274-.735 10.351-5.979 23.109-13.347 1.274-.736 1.275.736 16.731 9.663 16.729 9.664 1.275.735-1.275.737-34.735 20.063Zm-33.46-20.801 33.46 19.327 33.461-19.326-13.169-7.605-20.292-11.72-12.03 6.948-21.43 12.376Z" fill="#D1EBFA"/><path opacity=".3" d="m81.662 342.854-.318-.185-35.693-20.615 34.735-20.062 1.275-.736.317.184 34.419 19.879 1.274.735-1.274.737h-.001l-34.734 20.063Zm-.001-40.125L48.2 322.054l33.46 19.326 33.461-19.326-33.461-19.325Z" fill="#D1EBFA"/><path d="M45.998 235.395c-.68.393-1.336.884-1.962 1.439-.272-8.834-6.651-12.348-14.5-7.814-6.393 3.692-11.81 11.597-13.75 19.346-1.58-.213-3.433.198-5.424 1.348C4.639 253.02 0 261.058 0 267.667c0 6.611 4.639 9.289 10.362 5.985l35.636-20.582c4.226-2.441 7.65-8.375 7.65-13.256 0-4.88-3.424-6.859-7.65-4.419ZM322.443 289.486c0 2.145-1.503 4.75-3.36 5.823-1.855 1.072-3.359.203-3.359-1.941 0-2.143 1.504-4.75 3.359-5.821 1.857-1.072 3.36-.204 3.36 1.939ZM333.319 283.077c0 2.144-1.503 4.75-3.36 5.822-1.856 1.072-3.36.203-3.36-1.941 0-2.143 1.504-4.75 3.36-5.821 1.857-1.072 3.36-.204 3.36 1.94ZM344.236 277.005c0 2.144-1.503 4.75-3.36 5.822-1.855 1.072-3.36.202-3.36-1.94 0-2.145 1.505-4.75 3.36-5.822 1.857-1.072 3.36-.204 3.36 1.94ZM355.112 270.596c0 2.143-1.505 4.75-3.36 5.821-1.856 1.072-3.36.203-3.36-1.94 0-2.145 1.504-4.75 3.36-5.822 1.855-1.072 3.36-.203 3.36 1.941ZM165.593 349.535c0 2.144-1.504 4.751-3.359 5.823-1.856 1.071-3.36.202-3.36-1.941 0-2.143 1.504-4.75 3.36-5.822 1.855-1.071 3.359-.203 3.359 1.94ZM174.867 344.139c0 2.143-1.504 4.75-3.36 5.821-1.857 1.072-3.36.203-3.36-1.94 0-2.145 1.503-4.75 3.36-5.822 1.856-1.072 3.36-.203 3.36 1.941ZM165.593 338.739c0 2.143-1.504 4.75-3.359 5.823-1.856 1.071-3.36.203-3.36-1.941 0-2.143 1.504-4.75 3.36-5.821 1.855-1.072 3.359-.204 3.359 1.939ZM174.867 333.681c0 2.143-1.504 4.75-3.36 5.821-1.857 1.072-3.36.203-3.36-1.94 0-2.144 1.503-4.75 3.36-5.822 1.856-1.072 3.36-.204 3.36 1.941ZM134.443 81.305l-6.72 3.88v-7.761l6.72-3.881v7.762ZM143.759 75.908l-6.721 3.88v-7.762l6.721-3.88v7.762ZM134.527 91.426l-6.72 3.88v-7.762l6.72-3.88v7.762ZM143.759 86.028l-6.721 3.88v-7.76l6.721-3.882v7.762Z" fill="#fff"/><path d="M352.723 52.282c-2.442 0-4.12-1.949-4.12-5.32 0-4.75 3.334-10.525 7.447-12.9 1.19-.688 2.312-1.01 3.309-1.01.367 0 .719.044 1.049.13a18.553 18.553 0 0 1-.157-2.322c0-9.928 6.969-22 15.564-26.966 2.492-1.439 4.843-2.12 6.929-2.12 3.03 0 5.495 1.439 7.003 4.074 1.501-1.817 3.222-3.353 5.054-4.41C396.49.461 398.084 0 399.498 0c3.373 0 5.711 2.632 5.819 7.195.983-1.157 2.099-2.138 3.283-2.822 1.15-.663 2.235-.978 3.198-.978 2.349 0 3.962 1.873 3.962 5.113 0 1.71-.45 3.56-1.221 5.323-.566-3.56-2.725-5.576-5.677-5.576-1.413 0-3.008.462-4.696 1.437-1.832 1.058-3.555 2.595-5.055 4.412-1.508-2.636-3.974-4.074-7.003-4.074-2.086 0-4.438.68-6.93 2.12-8.594 4.964-15.562 17.037-15.562 26.965 0 .82.065 1.584.157 2.322a4.162 4.162 0 0 0-1.051-.13c-.996 0-2.118.32-3.308 1.008-2.474 1.43-4.668 4.092-6.021 7.019l-3.343 1.93c-1.196.69-2.325 1.017-3.327 1.017Z" fill="#C4E6F9"/><path d="M362.081 60.357c-2.443 0-4.12-1.949-4.12-5.319 0-1.892.528-3.946 1.425-5.884l49.207-28.423c2.474-1.427 4.654-4.135 5.939-7.08.081.509.13 1.049.143 1.619.984-1.156 2.098-2.137 3.283-2.821 1.15-.665 2.235-.98 3.197-.98 2.35 0 3.962 1.874 3.962 5.114 0 4.568-3.205 10.12-7.159 12.404L365.407 59.34c-1.195.69-2.324 1.017-3.326 1.017Z" fill="#DAF0FC"/><path d="M359.394 49.175c1.353-2.927 3.547-5.588 6.021-7.018 1.19-.688 2.312-1.01 3.308-1.01.368 0 .719.045 1.051.131a18.553 18.553 0 0 1-.157-2.321c0-9.929 6.968-22.002 15.562-26.966 2.493-1.44 4.844-2.12 6.93-2.12 3.029 0 5.495 1.438 7.003 4.074 1.5-1.817 3.223-3.353 5.055-4.412 1.688-.975 3.283-1.437 4.696-1.437 2.952 0 5.111 2.017 5.677 5.576-1.285 2.945-3.465 5.653-5.939 7.08l-49.207 28.423Z" fill="#E3F4FD"/><path d="M427.316 20.903c-1.186.685-2.299 1.665-3.283 2.822-.154-6.473-4.798-9.06-10.517-5.758-1.832 1.058-3.555 2.595-5.054 4.412-2.548-4.452-7.821-5.484-13.933-1.954-8.596 4.964-15.562 17.038-15.562 26.966 0 .82.063 1.583.154 2.321-1.224-.319-2.728-.062-4.358.879-4.111 2.376-7.445 8.152-7.445 12.902 0 4.752 3.334 6.677 7.445 4.303l52.553-30.354c3.952-2.284 7.158-7.836 7.158-12.404 0-4.567-3.206-6.417-7.158-4.135ZM140.17 240.72h.011-.011Zm-16.405-9.474v17.072l14.779-8.536v-17.074l-14.779 8.538Zm-1.625 21.513a1.627 1.627 0 0 1-1.626-1.626v-20.827c0-.581.31-1.118.813-1.408l18.03-10.413a1.626 1.626 0 0 1 2.438 1.407v20.828c0 .582-.31 1.118-.813 1.409l-18.03 10.413a1.623 1.623 0 0 1-.812.217Z" fill="#fff"/><path opacity=".3" d="m109.761 354.233-26.004-15.019 26.002-15.018 26.004 15.019-26.002 15.018Z" fill="#0030AD"/><path d="m87.708 328.035 22.049 12.735 22.048-12.735-22.049-12.734-22.048 12.734Zm22.049 16.997c-.342 0-.682-.089-.987-.265l-26.004-15.019a1.98 1.98 0 0 1-.99-1.713c0-.706.379-1.359.99-1.713l26.002-15.018a1.976 1.976 0 0 1 1.976 0l26.003 15.018a1.977 1.977 0 0 1 0 3.426l-26.002 15.019a1.976 1.976 0 0 1-.988.265Z" fill="#fff"/><path fill-rule="evenodd" clip-rule="evenodd" d="m135.768 316.448-26.002 15.018v-30.035l26.002-15.018v30.035Z" fill="url('#paint0_linear_4_396')"/><path fill-rule="evenodd" clip-rule="evenodd" d="M109.759 301.267 83.757 286.25l26.001-15.018 26.003 15.018-26.002 15.017Z" fill="url('#paint1_linear_4_396')"/><path fill-rule="evenodd" clip-rule="evenodd" d="m109.759 331.466-26.002-15.018v-30.035l26.002 15.018v30.035Z" fill="url('#paint2_linear_4_396')"/><path d="m100.387 315.206-7.272-4.199v-8.402l7.272 4.201v8.4Z" fill="#fff"/><path opacity=".3" d="m400.908 192.641-26.002-15.019 26-15.018 26.004 15.018-26.002 15.019Z" fill="#0030AD"/><path d="m378.856 166.105 22.048 12.735 22.049-12.735-22.051-12.733-22.046 12.733Zm22.048 16.996c-.34 0-.682-.088-.988-.266l-26.003-15.016a1.978 1.978 0 0 1 0-3.426l26.003-15.018a1.976 1.976 0 0 1 1.976 0l26.003 15.018a1.979 1.979 0 0 1 0 3.426l-26.002 15.016a1.966 1.966 0 0 1-.989.266Z" fill="#fff"/><path fill-rule="evenodd" clip-rule="evenodd" d="m426.916 154.519-26.002 15.019v-30.036l26.002-15.019v30.036Z" fill="url('#paint3_linear_4_396')"/><path fill-rule="evenodd" clip-rule="evenodd" d="m400.907 139.339-26.001-15.019 25.999-15.018 26.004 15.019-26.002 15.018Z" fill="url('#paint4_linear_4_396')"/><path fill-rule="evenodd" clip-rule="evenodd" d="m400.907 169.538-26.001-15.019v-30.036l26.001 15.019v30.036Z" fill="url('#paint5_linear_4_396')"/><path d="m391.537 153.277-7.273-4.2v-8.401l7.273 4.2v8.401ZM393.622 124.722l7.221-4.287 7.322 4.113-7.221 4.287-7.322-4.113Z" fill="#fff"/><path opacity=".3" d="m400.908 354.233-26.002-15.019 26-15.018 26.004 15.019-26.002 15.018Z" fill="#0030AD"/><path d="m378.855 328.035 22.049 12.735 22.05-12.735-22.052-12.734-22.047 12.734Zm22.049 16.997c-.34 0-.682-.089-.988-.265l-26.003-15.019a1.98 1.98 0 0 1 0-3.426l26.003-15.018a1.976 1.976 0 0 1 1.976 0l26.003 15.018a1.976 1.976 0 0 1 0 3.426l-26.002 15.019a1.985 1.985 0 0 1-.989.265Z" fill="#fff"/><path fill-rule="evenodd" clip-rule="evenodd" d="m426.916 316.448-26.002 15.018v-30.035l26.002-15.018v30.035Z" fill="url('#paint6_linear_4_396')"/><path fill-rule="evenodd" clip-rule="evenodd" d="m400.907 301.267-26.001-15.017 25.999-15.018 26.003 15.018-26.001 15.017Z" fill="url('#paint7_linear_4_396')"/><path fill-rule="evenodd" clip-rule="evenodd" d="m400.907 331.466-26.001-15.018v-30.035l26.001 15.018v30.035Z" fill="url('#paint8_linear_4_396')"/><path d="m391.537 315.206-7.273-4.199v-8.402l7.273 4.201v8.4Z" fill="#fff"/><path opacity=".3" d="m109.761 192.641-26.004-15.019 26.002-15.018 26.004 15.018-26.002 15.019Z" fill="#0030AD"/><path d="m87.709 166.105 22.048 12.735 22.047-12.735-22.048-12.733-22.047 12.733Zm22.048 16.996c-.342 0-.682-.088-.987-.266l-26.004-15.016a1.98 1.98 0 0 1 0-3.426l26.002-15.018a1.976 1.976 0 0 1 1.976 0l26.003 15.018a1.978 1.978 0 0 1 0 3.426l-26.002 15.016a1.957 1.957 0 0 1-.988.266Z" fill="#fff"/><path fill-rule="evenodd" clip-rule="evenodd" d="m135.768 154.519-26.002 15.019v-30.036l26.002-15.019v30.036Z" fill="url('#paint9_linear_4_396')"/><path fill-rule="evenodd" clip-rule="evenodd" d="M109.759 139.339 83.757 124.32l26.001-15.018 26.003 15.019-26.002 15.018Z" fill="url('#paint10_linear_4_396')"/><path fill-rule="evenodd" clip-rule="evenodd" d="m109.759 169.538-26.002-15.019v-30.036l26.002 15.019v30.036Z" fill="url('#paint11_linear_4_396')"/><path d="m100.387 153.277-7.272-4.2v-8.401l7.272 4.2v8.401ZM312.893 192.839l-1.975-3.426 75.617-43.677 1.976 3.426-75.618 43.677Z" fill="#fff"/><path opacity=".3" d="m249.173 298.497-66.689-38.517c-2.443-1.412-2.136-3.877.685-5.506l70.682-40.93c2.822-1.63 7.09-1.808 9.534-.396l66.688 38.516c2.444 1.413 2.136 3.877-.685 5.508L258.707 298.1c-2.823 1.631-7.091 1.808-9.534.397Z" fill="#0030AD"/><path d="M250.198 281.211c1.831 1.057 5.363.872 7.558-.396l70.68-40.929c.988-.571 1.348-1.152 1.348-1.403 0-.149-.205-.415-.662-.68l-66.687-38.516c-1.832-1.058-5.363-.873-7.558.396l-70.68 40.928c-.989.571-1.348 1.152-1.348 1.405 0 .146.205.414.663.678l66.686 38.517Zm3.162 4.634c-1.904 0-3.737-.4-5.139-1.209l-66.687-38.517c-1.677-.969-2.638-2.465-2.638-4.103 0-1.85 1.211-3.609 3.322-4.83l70.68-40.928c3.421-1.977 8.476-2.151 11.513-.397l66.687 38.518c1.677.967 2.638 2.463 2.638 4.104 0 1.849-1.211 3.609-3.322 4.827l-70.68 40.929c-1.84 1.064-4.155 1.606-6.374 1.606Z" fill="#fff"/><path fill-rule="evenodd" clip-rule="evenodd" d="M253.843 267.564c.909-.638 1.474-1.948 1.474-3.76V100.93c0-1.709-.503-3.552-1.323-5.171l12.573-7.263 1.274-.735 33.46-19.326 1.274-.736L331.59 50.94c.829 1.627 1.344 3.48 1.344 5.2v162.873c0 1.879-.612 3.21-1.58 3.819l.002.007-.138.08-.037.022-9.961 5.747-3.955 2.282-4.945 2.854-1.275.735-5.294 3.054-51.908 29.951Z" fill="url('#paint12_linear_4_396')"/><path fill-rule="evenodd" clip-rule="evenodd" d="M253.996 95.729c-.872-1.725-2.103-3.197-3.467-3.984l-68.037-39.296c-.676-.39-1.318-.575-1.901-.575-.383 0-.741.08-1.063.234L257.01 7.39c.36-.2.765-.306 1.204-.306.581 0 1.221.185 1.896.574l68.036 39.296c1.356.783 2.578 2.244 3.45 3.955L302.578 67.67l-1.276.736-33.458 19.326-1.276.736-12.572 7.261Z" fill="url('#paint13_linear_4_396')"/><path d="m250.544 267.477-68.038-39.296c-2.645-1.528-4.79-5.627-4.79-9.156V56.151c0-3.53 2.145-5.152 4.79-3.624l68.038 39.296c2.644 1.528 4.789 5.628 4.789 9.157v162.874c0 3.53-2.145 5.151-4.789 3.623Z" fill="#5593CE"/><path d="M252.007 91.146 183.972 51.85c-1.531-.883-2.892-.708-3.769.279.686-.11 1.473.056 2.31.54l68.037 39.296c2.644 1.528 4.79 5.628 4.79 9.156v162.874c0 1.487-.384 2.629-1.023 3.347 1.478-.235 2.481-1.753 2.481-4.166V100.303c0-3.529-2.144-7.63-4.791-9.157Z" fill="#fff"/><path d="m246.27 257.676-59.476-34.351c-2.314-1.336-4.189-4.92-4.189-8.005V64.056c0-3.085 1.875-4.503 4.189-3.167L246.27 95.24c2.313 1.336 4.189 4.92 4.189 8.004V254.51c0 3.085-1.876 4.502-4.189 3.166Z" fill="#1F3E79"/><path d="m248.213 256.531-59.476-34.351c-2.312-1.336-4.188-4.922-4.188-8.005V62.91c0-1.051.223-1.903.601-2.524-1.496-.012-2.545 1.361-2.545 3.668v151.264c0 3.085 1.875 6.669 4.189 8.005l59.476 34.352c1.524.881 2.853.558 3.587-.643-.505-.003-1.061-.164-1.644-.501Z" fill="#386DAB"/><path d="m246.25 188.191-22.106-12.768-35.258 20.364 61.553 35.551v-35.141c0-3.085-1.875-6.67-4.189-8.006Z" fill="#1F3E79"/><path d="m246.25 157.155-22.106-12.768-35.258 20.363 61.553 35.552V165.16c0-3.086-1.875-6.669-4.189-8.005Z" fill="#1F3E79"/><path d="m246.25 126.456-22.106-12.768-35.258 20.363 61.553 35.55v-35.14c0-3.086-1.875-6.67-4.189-8.005Z" fill="#1F3E79"/><path d="m246.25 95.42-22.106-12.769-35.258 20.365 61.553 35.55v-35.14c0-3.086-1.875-6.67-4.189-8.006Z" fill="#1F3E79"/><path d="m246.25 95.4-48.94-28.267-8.424 4.865 61.553 35.55v-4.143c0-3.086-1.875-6.67-4.189-8.005Z" fill="#1F3E79"/><path d="m250.439 107.408-61.553-35.552v19.592l61.553 35.55v-19.59ZM250.439 138.444l-61.553-35.551v19.591l61.553 35.552v-19.592ZM250.439 169.48l-61.553-35.551v19.593l61.553 35.55V169.48ZM250.439 200.516l-61.553-35.55v19.591l61.553 35.55v-19.591ZM250.439 231.553l-61.553-35.551v19.592l61.553 35.55v-19.591Z" fill="#5593CE"/><path d="m245.037 119.933-46.363-26.777c-1.308-.756-2.369-2.784-2.369-4.53v-5.247c0-1.746 1.061-2.548 2.369-1.793l46.363 26.778c1.308.756 2.369 2.785 2.369 4.529v5.247c0 1.747-1.061 2.549-2.369 1.793Z" fill="#1F3E79"/><path d="M245.298 120.065a2.768 2.768 0 0 1-.261-.131l-46.363-26.777c-1.308-.757-2.369-2.785-2.369-4.531 0 1.746 1.061 3.774 2.369 4.53l46.363 26.778c.089.05.175.094.261.131Zm-48.993-36.686c0-1.295.584-2.071 1.419-2.077-.835.006-1.419.782-1.419 2.077Zm1.433-2.077h-.003.003Z" fill="#4068A4"/><path d="M245.969 120.216c-.209 0-.435-.049-.671-.151a2.768 2.768 0 0 1-.261-.131l-46.363-26.777c-1.308-.757-2.369-2.785-2.369-4.531v-5.247c0-1.295.584-2.071 1.419-2.077h.014c.287.001.603.092.936.284l.06.035a3.398 3.398 0 0 0-.086.753v5.248c0 1.745 1.061 3.773 2.37 4.53l46.302 26.742c-.188.838-.69 1.322-1.351 1.322Z" fill="#233066"/><path d="m230.475 105.812-27.898-16.113c-.461-.266-.834-.979-.834-1.595 0-.614.373-.896.834-.629l27.898 16.113c.461.266.835.979.835 1.594 0 .615-.374.897-.835.63Z" fill="#fff"/><path d="m245.037 150.97-46.363-26.777c-1.308-.758-2.369-2.784-2.369-4.531v-5.248c0-1.744 1.061-2.547 2.369-1.791l46.363 26.778c1.308.755 2.369 2.784 2.369 4.529v5.247c0 1.747-1.061 2.548-2.369 1.793Z" fill="#1F3E79"/><path d="M245.237 151.084Zm-.015-.007a3.023 3.023 0 0 1-.185-.098l-46.363-26.777c-1.308-.757-2.369-2.784-2.369-4.531 0 1.747 1.061 3.774 2.369 4.531l46.363 26.777c.062.036.124.068.185.098Zm-48.917-36.716c.012-.766.231-1.343.586-1.679-.355.336-.574.913-.586 1.679Zm.588-1.681.005-.004-.005.004Z" fill="#4068A4"/><path d="M245.969 151.252a1.75 1.75 0 0 1-.732-.177c-.003-.002-.005-.004-.009-.005l-.006-.002a3.023 3.023 0 0 1-.185-.098l-46.363-26.777c-1.308-.758-2.369-2.784-2.369-4.531v-5.311c.012-.765.231-1.342.586-1.679l.002-.001.005-.004c.229-.215.513-.329.836-.329.288 0 .606.093.94.286l.06.033a3.405 3.405 0 0 0-.086.754v5.247c0 1.747 1.061 3.773 2.37 4.53l46.302 26.742c-.188.839-.69 1.322-1.351 1.322Z" fill="#233066"/><path d="m230.475 136.511-27.898-16.113c-.461-.266-.834-.979-.834-1.594 0-.615.373-.897.834-.63l27.898 16.113c.461.266.835.979.835 1.593 0 .616-.374.898-.835.631Z" fill="#fff"/><path d="m245.037 182.006-46.363-26.777c-1.308-.756-2.369-2.784-2.369-4.531v-5.246c0-1.746 1.061-2.549 2.369-1.792l46.363 26.777c1.308.756 2.369 2.785 2.369 4.53v5.246c0 1.746-1.061 2.55-2.369 1.793Z" fill="#1F3E79"/><path d="M196.305 145.452c0-1.297.586-2.075 1.426-2.077-.84.002-1.426.78-1.426 2.077Zm2.43-1.757-.06-.034.06.033v.001Zm-.06-.034-.043-.025.043.025Zm-.937-.286h-.004.004Z" fill="#4068A4"/><path d="M245.969 182.289c-.285 0-.6-.091-.932-.282l-46.363-26.777c-1.308-.757-2.369-2.785-2.369-4.531v-5.247c0-1.297.586-2.075 1.425-2.077h.007c.275.001.578.085.894.261l.043.025.06.034a3.393 3.393 0 0 0-.086.752v5.247c0 1.747 1.061 3.774 2.37 4.532l46.302 26.741c-.188.838-.69 1.322-1.351 1.322Z" fill="#233066"/><path d="m230.475 167.548-27.898-16.114c-.461-.265-.834-.979-.834-1.594 0-.613.373-.895.834-.631l27.898 16.116c.461.265.835.978.835 1.592 0 .615-.374.897-.835.631Z" fill="#D4EBFA"/><path d="m245.037 213.38-46.363-26.777c-1.308-.757-2.369-2.784-2.369-4.531v-5.247c0-1.745 1.061-2.547 2.369-1.792l46.363 26.778c1.308.755 2.369 2.784 2.369 4.529v5.247c0 1.746-1.061 2.549-2.369 1.793Z" fill="#1F3E79"/><path d="m245.252 213.492-.007-.003.007.003Zm-.013-.007a2.297 2.297 0 0 1-.202-.105l-46.363-26.777c-1.308-.757-2.369-2.784-2.369-4.531 0 1.747 1.061 3.774 2.369 4.531l46.363 26.777c.068.04.135.074.202.105Zm-48.934-36.66c0-1.294.584-2.07 1.419-2.076-.835.006-1.419.782-1.419 2.076Zm1.433-2.076h-.003.003Z" fill="#4068A4"/><path d="M245.969 213.663c-.223 0-.463-.056-.717-.171l-.013-.007a2.297 2.297 0 0 1-.202-.105l-46.363-26.777c-1.308-.757-2.369-2.784-2.369-4.531v-5.247c0-1.294.584-2.07 1.419-2.076h.014c.287.001.603.092.936.284l.06.035a3.395 3.395 0 0 0-.086.753v5.247c0 1.746 1.061 3.774 2.37 4.53l46.302 26.743c-.188.838-.69 1.322-1.351 1.322Z" fill="#233066"/><path d="m230.475 198.922-27.898-16.113c-.461-.266-.834-.979-.834-1.595 0-.614.373-.896.834-.63l27.898 16.114c.461.266.835.979.835 1.593 0 .616-.374.898-.835.631Z" fill="#ED3795"/><path d="m245.037 244.078-46.363-26.777c-1.308-.756-2.369-2.784-2.369-4.531v-5.246c0-1.746 1.061-2.547 2.369-1.792l46.363 26.777c1.308.757 2.369 2.784 2.369 4.53v5.246c0 1.746-1.061 2.55-2.369 1.793Z" fill="#1F3E79"/><path d="M196.305 207.524c0-1.294.584-2.07 1.42-2.076-.836.006-1.42.782-1.42 2.076Zm2.43-1.757-.06-.035.06.034v.001Zm-.06-.035Zm-.936-.284h-.005.005Z" fill="#4068A4"/><path d="M245.969 244.36c-.285 0-.6-.091-.932-.282l-46.363-26.777c-1.308-.756-2.369-2.784-2.369-4.531v-5.246c0-1.294.584-2.07 1.419-2.076h.014c.27.001.565.082.875.25l.061.034.06.035a3.395 3.395 0 0 0-.086.753v5.246c0 1.747 1.061 3.774 2.37 4.53l46.302 26.743c-.188.837-.69 1.321-1.351 1.321Z" fill="#233066"/><path d="m230.475 229.621-27.898-16.114c-.461-.265-.834-.98-.834-1.594 0-.613.373-.895.834-.631l27.898 16.116c.461.264.835.978.835 1.592 0 .615-.374.897-.835.631Z" fill="#D4EBFA"/><path d="m193.733 94.248-4.847-2.8 4.847 2.8Zm0-19.591-4.847-2.8 4.847 2.8v-.001Z" fill="#1F3E79"/><path d="m193.733 74.657-4.847-2.8 4.847 2.799" fill="#1F3E79"/><path d="m193.733 94.247-4.847-2.8v-19.59l4.847 2.8v19.591" fill="#3668A5"/><path d="m193.733 125.26-4.847-2.801 4.847 2.799v.002Z" fill="#1F3E79"/><path d="m193.733 125.283-4.847-2.799v-19.591l4.847 2.8v19.592M193.733 156.321l-4.847-2.799v-19.593l4.847 2.8v19.592Z" fill="#3668A5"/><path d="m193.733 167.765-4.847-2.799 4.847 2.799Z" fill="#1F3E79"/><path d="m193.733 187.356-4.847-2.799v-19.591l4.847 2.799v19.591Z" fill="#3668A5"/><path d="m193.733 218.369-4.847-2.801 4.847 2.8v.001ZM193.733 198.802l-4.847-2.8 4.847 2.799v.001Z" fill="#1F3E79"/><path d="m193.733 218.393-4.847-2.799v-19.592l4.847 2.8v19.592" fill="#3668A5"/><path d="M235.953 107.763c0 .626-.439.881-.981.566-.544-.312-.983-1.073-.983-1.699 0-.626.439-.88.983-.568.542.314.981 1.076.981 1.701Z" fill="#D4EBFA"/><path d="M240.126 110.124c0 .627-.44.881-.982.567-.543-.312-.981-1.073-.981-1.7 0-.625.438-.88.981-.567.542.314.982 1.075.982 1.7Z" fill="#ED3795"/><path d="M244.299 112.486c0 .626-.44.881-.982.566-.541-.312-.981-1.074-.981-1.7 0-.624.44-.879.981-.567.542.314.982 1.076.982 1.701Z" fill="#D4EBFA"/><path d="M235.953 138.462c0 .626-.439.88-.981.568-.544-.314-.983-1.076-.983-1.701 0-.626.439-.881.983-.566.542.312.981 1.073.981 1.699Z" fill="#ED3795"/><path d="M240.126 141.161c0 .625-.44.88-.982.567-.543-.314-.981-1.075-.981-1.7 0-.626.438-.881.981-.566.542.312.982 1.073.982 1.699Z" fill="#D4EBFA"/><path d="M244.299 143.523c0 .625-.44.88-.982.567-.541-.314-.981-1.075-.981-1.701 0-.625.44-.88.981-.567.542.313.982 1.075.982 1.701ZM235.953 169.836c0 .627-.439.879-.981.567-.544-.313-.983-1.075-.983-1.701 0-.626.439-.879.983-.567.542.314.981 1.075.981 1.701Z" fill="#fff"/><path d="M240.126 172.198c0 .626-.44.878-.982.566-.543-.313-.981-1.074-.981-1.701 0-.626.438-.878.981-.566.542.313.982 1.074.982 1.701Z" fill="#ED3795"/><path d="M244.299 174.559c0 .627-.44.879-.982.567-.541-.314-.981-1.075-.981-1.701 0-.626.44-.879.981-.567.542.312.982 1.075.982 1.701ZM235.953 200.535c0 .627-.439.88-.981.567-.544-.313-.983-1.074-.983-1.701 0-.626.439-.878.983-.566.542.313.981 1.074.981 1.7Z" fill="#fff"/><path d="M240.126 202.897c0 .626-.44.88-.982.567-.543-.313-.981-1.074-.981-1.701 0-.626.438-.88.981-.566.542.312.982 1.074.982 1.7ZM244.299 205.258c0 .626-.44.879-.982.567-.541-.313-.981-1.074-.981-1.7 0-.627.44-.88.981-.567.542.312.982 1.074.982 1.7Z" fill="#D4EBFA"/><path d="M235.953 231.909c0 .626-.439.88-.981.567-.544-.314-.983-1.075-.983-1.701 0-.626.439-.879.983-.567.542.315.981 1.076.981 1.701Z" fill="#fff"/><path d="M240.126 234.27c0 .627-.44.88-.982.567-.543-.313-.981-1.074-.981-1.701 0-.625.438-.878.981-.566.542.314.982 1.075.982 1.7Z" fill="#ED3795"/><path d="M244.299 236.632c0 .627-.44.88-.982.567-.541-.314-.981-1.075-.981-1.701 0-.627.44-.879.981-.567.542.315.982 1.076.982 1.701Z" fill="#D4EBFA"/><path d="M266.709 107.498v136.037l55.931-32.304V75.194l-55.931 32.304Zm-1.147 138.027v-138.69l.286-.165 57.94-33.464v138.69l-.287.163-57.939 33.466Z" fill="#1F3E79"/><path d="m308.739 135.557-25.979 15.005c-1.747 1.008-3.161-.062-3.161-2.389v-14.411c0-2.327 1.414-5.031 3.161-6.04l25.979-15.004c1.744-1.008 3.159.061 3.159 2.39v14.408c0 2.329-1.415 5.034-3.159 6.041Z" fill="#1F3E79"/><path d="M309.386 112.437c.149.404.235.887.235 1.445v14.411c0 2.327-1.416 5.032-3.16 6.04l-25.98 15.005a3.176 3.176 0 0 1-.63.28c.469 1.271 1.6 1.71 2.926.944l25.98-15.005c1.743-1.008 3.159-3.713 3.159-6.041v-14.409c0-2.04-1.086-3.112-2.53-2.67Z" fill="#5593CE"/><path d="M303.99 126.963c.48-.277.871-.051.871.504v3.282c0 .554-.391 1.229-.871 1.505-.48.278-.87.053-.87-.5v-3.283c0-.554.39-1.229.87-1.508Z" fill="#fff"/><path d="M300.28 129.662c.48-.277.869-.053.869.504v2.871c0 .554-.389 1.229-.869 1.507-.48.277-.87.053-.87-.502v-2.872c0-.555.39-1.23.87-1.508Z" fill="#D4EBFA"/><path d="M296.57 128.312c.482-.276.871-.052.871.504v6.076c0 .554-.389 1.229-.871 1.506-.48.279-.869.053-.869-.502v-6.076c0-.555.389-1.23.869-1.508Z" fill="#ED3795"/><path d="M292.82 126.964c.48-.278.869-.053.869.502v9.578c0 .555-.389 1.228-.869 1.507-.481.278-.871.052-.871-.503v-9.577c0-.556.39-1.231.871-1.507ZM289.109 130.337c.482-.277.87-.053.87.503v8.573c0 .556-.388 1.23-.87 1.507-.48.278-.869.053-.869-.502v-8.574c0-.555.389-1.228.869-1.507Z" fill="#D4EBFA"/><path d="M285.359 136.409c.48-.277.869-.053.869.502v4.656c0 .556-.389 1.231-.869 1.507-.481.278-.87.053-.87-.502v-4.656c0-.555.389-1.229.87-1.507Z" fill="#fff"/><path d="M303.162 125.406c0 .547.384.767.856.495.472-.274.855-.937.855-1.482 0-.545-.383-.766-.855-.494s-.856.935-.856 1.481Z" fill="#ED3795"/><path d="M303.162 122.034c0 .546.384.766.856.494.472-.273.855-.936.855-1.482 0-.546-.383-.767-.855-.494-.472.274-.856.936-.856 1.482ZM402.887 47.904h-3.954v76.729h3.954V47.904Z" fill="#fff"/><path opacity=".3" d="m250.912 369.05-39.725-22.945c-2.438-1.408-2.132-3.869.682-5.495l38.358-22.153c2.815-1.626 7.074-1.802 9.512-.395l39.725 22.944c2.439 1.409 2.133 3.868-.683 5.494l-38.357 22.155c-2.816 1.626-7.075 1.802-9.512.395Z" fill="#0030AD"/><path d="M252.019 354.52c1.754 1.011 5.142.827 7.256-.395l38.358-22.154c.964-.557 1.196-1.061 1.201-1.155-.014-.027-.142-.212-.517-.43l-39.727-22.945c-1.749-1.011-5.139-.826-7.255.395l-38.357 22.154c-.965.557-1.195 1.06-1.201 1.155.014.029.143.214.518.431l39.725 22.944h-.001Zm3.025 5.173c-1.942 0-3.815-.417-5.28-1.263h-.001l-39.724-22.945c-1.764-1.018-2.774-2.6-2.774-4.341 0-1.949 1.259-3.794 3.455-5.062l38.359-22.154c3.549-2.052 8.606-2.222 11.767-.395l39.727 22.945c1.763 1.017 2.773 2.599 2.773 4.339 0 1.948-1.26 3.794-3.457 5.063l-38.357 22.155c-1.904 1.099-4.243 1.658-6.488 1.658Z" fill="#fff"/><path d="M301.091 316.673v-13.71l-30.735-.019-10.623-6.135c-2.438-1.408-6.697-1.231-9.513.395l-9.91 5.725-30.763-.018v14.102c-.069.954.463 1.874 1.633 2.55l39.725 22.944c2.438 1.407 6.697 1.231 9.512-.395l38.358-22.153c1.624-.939 2.408-2.154 2.316-3.286Z" fill="url('#paint14_linear_4_396')"/><path fill-rule="evenodd" clip-rule="evenodd" d="M255.319 295.858c-1.784.044-3.635.493-5.099 1.339l-9.91 5.725-30.763-.019v14.103c-.069.953.463 1.873 1.633 2.549l39.725 22.945c1.171.677 2.764.983 4.414.943v-47.585Z" fill="url('#paint15_linear_4_396')"/><path d="m213.029 302.945-3.482-.002v14.102c-.069.954.463 1.874 1.633 2.55l1.849 1.067v-17.717Z" fill="#D4EBFA"/><path d="M251.525 342.994c2.102.902 5.144.851 7.604-.087v-16.012h-7.604v16.099Z" fill="url('#paint16_linear_4_396')"/><path fill-rule="evenodd" clip-rule="evenodd" d="m250.912 328.567-39.725-22.944c-2.438-1.408-2.132-3.869.682-5.495l38.358-22.154c2.815-1.626 7.074-1.802 9.512-.395l39.725 22.945c2.439 1.408 2.133 3.867-.683 5.494l-38.357 22.155c-2.816 1.626-7.075 1.802-9.512.394Z" fill="url('#paint17_linear_4_396')"/><path d="m298.782 303.309-38.358 22.154c-2.815 1.626-7.074 1.802-9.512.395l-39.725-22.945c-.545-.313-.943-.682-1.217-1.079-.838 1.347-.458 2.811 1.217 3.778l39.725 22.944c2.438 1.408 6.697 1.232 9.512-.394l38.358-22.155c2.187-1.263 2.851-3.028 1.899-4.413-.382.614-1.018 1.205-1.899 1.715Z" fill="#fff"/><path d="M286.475 320.282c0 1.023-.718 2.268-1.603 2.781-.888.511-1.606.096-1.606-.927 0-1.025.718-2.269 1.606-2.781.885-.511 1.603-.097 1.603.927ZM291.66 317.246c0 1.023-.718 2.268-1.605 2.779-.886.512-1.604.097-1.604-.927 0-1.022.718-2.268 1.604-2.779.887-.512 1.605-.097 1.605.927ZM296.803 314.209c0 1.025-.719 2.27-1.605 2.781-.886.512-1.604.097-1.604-.927 0-1.023.718-2.267 1.604-2.781.886-.511 1.605-.096 1.605.927Z" fill="#D4EBFA"/><path d="m253.266 314.429-18.591-10.737c-1.141-.659-.997-1.81.321-2.572l17.95-10.367c1.316-.762 3.31-.843 4.451-.185l18.588 10.738c1.141.659.998 1.809-.319 2.57l-17.949 10.367c-1.317.761-3.311.843-4.451.186Z" fill="url('#paint18_linear_4_396')"/><path d="m255.047 305.293-2.573-1.486c-.156-.091-.138-.249.044-.354l2.485-1.435c.182-.105.457-.117.615-.025l2.572 1.485c.158.091.137.25-.045.356l-2.482 1.434c-.182.106-.46.117-.616.025Z" fill="#D4EBFA"/><path d="m234.675 303.692.053.03.268-.184 17.95-10.367c1.316-.761 3.31-.843 4.451-.184l18.535 10.706c1.052-.754 1.107-1.779.053-2.387l-18.588-10.738c-1.141-.658-3.135-.577-4.451.185l-17.95 10.367c-1.318.762-1.462 1.913-.321 2.572Z" fill="#386DAB"/><path opacity=".3" d="m396.506 267.844-39.724-22.945c-2.437-1.408-2.132-3.867.684-5.493l38.357-22.155c2.814-1.626 7.074-1.802 9.511-.395l39.726 22.945c2.438 1.408 2.133 3.867-.684 5.495l-38.356 22.153c-2.816 1.626-7.075 1.802-9.514.395Z" fill="#0030AD"/><path d="M397.613 253.315c1.754 1.009 5.143.825 7.259-.396l38.356-22.154c.964-.557 1.196-1.06 1.201-1.155-.013-.027-.142-.213-.516-.43l-39.727-22.945c-1.75-1.01-5.14-.826-7.255.395l-38.357 22.155c-.965.557-1.196 1.06-1.202 1.155.014.027.143.213.517.429l39.726 22.946h-.002Zm3.026 5.172c-1.944 0-3.816-.417-5.28-1.264h-.001l-39.725-22.944c-1.762-1.018-2.773-2.6-2.773-4.34 0-1.949 1.26-3.795 3.458-5.062l38.356-22.155c3.55-2.052 8.61-2.221 11.768-.395l39.727 22.945c1.762 1.016 2.773 2.599 2.773 4.34 0 1.948-1.261 3.794-3.458 5.063l-38.355 22.153c-1.905 1.1-4.244 1.659-6.49 1.659Z" fill="#fff"/><path d="M446.687 215.468v-13.712l-30.734-.017-10.626-6.136c-2.437-1.408-6.697-1.231-9.511.394l-9.912 5.726-30.761-.018v14.102c-.071.953.461 1.873 1.633 2.549l39.724 22.945c2.439 1.407 6.698 1.231 9.513-.395l38.357-22.154c1.625-.938 2.408-2.152 2.317-3.284Z" fill="url('#paint19_linear_4_396')"/><path fill-rule="evenodd" clip-rule="evenodd" d="M400.915 194.653c-1.784.043-3.636.494-5.099 1.338l-9.912 5.725-30.761-.017V215.8c-.071.953.461 1.873 1.633 2.549l39.724 22.945c1.172.677 2.766.983 4.415.943v-47.584Z" fill="url('#paint20_linear_4_396')"/><path d="m358.623 201.738-3.48-.001v14.101c-.071.954.461 1.874 1.633 2.55l1.847 1.068v-17.718Z" fill="#D4EBFA"/><path d="M397.121 241.45c2.101.901 5.144.852 7.602-.087v-16.011h-7.602v16.098Z" fill="url('#paint21_linear_4_396')"/><path fill-rule="evenodd" clip-rule="evenodd" d="m396.506 227.362-39.724-22.945c-2.437-1.408-2.132-3.869.684-5.495l38.357-22.154c2.814-1.625 7.074-1.802 9.511-.395l39.726 22.945c2.438 1.408 2.133 3.868-.684 5.495l-38.356 22.154c-2.816 1.626-7.075 1.802-9.514.395Z" fill="url('#paint22_linear_4_396')"/><path d="m444.375 202.103-38.356 22.154c-2.815 1.626-7.074 1.802-9.513.395l-39.724-22.945c-.544-.313-.944-.682-1.217-1.079-.837 1.347-.457 2.811 1.217 3.778l39.724 22.945c2.439 1.407 6.698 1.231 9.513-.395l38.356-22.154c2.19-1.264 2.854-3.029 1.901-4.414-.382.614-1.018 1.205-1.901 1.715Z" fill="#fff"/><path d="M432.069 219.076c0 1.022-.718 2.267-1.604 2.78-.885.511-1.604.096-1.604-.927 0-1.024.719-2.269 1.604-2.78.886-.511 1.604-.097 1.604.927ZM437.213 216.04c0 1.025-.718 2.268-1.603 2.781-.888.511-1.606.096-1.606-.929 0-1.022.718-2.267 1.606-2.779.885-.511 1.603-.097 1.603.927ZM442.398 213.004c0 1.023-.719 2.268-1.605 2.779-.886.512-1.604.097-1.604-.927 0-1.022.718-2.267 1.604-2.779.886-.512 1.605-.098 1.605.927Z" fill="#D4EBFA"/><path d="m398.817 212.885-18.588-10.737c-1.141-.658-.998-1.81.319-2.571l17.949-10.367c1.318-.761 3.309-.844 4.451-.185l18.591 10.737c1.14.659.997 1.811-.321 2.571l-17.949 10.368c-1.319.76-3.31.843-4.452.184Z" fill="url('#paint23_linear_4_396')"/><path d="m400.599 204.086-2.572-1.485c-.157-.091-.137-.249.045-.355l2.483-1.433c.183-.106.458-.118.615-.027l2.574 1.486c.157.091.138.251-.044.355l-2.485 1.435c-.183.105-.458.117-.616.024Z" fill="#D4EBFA"/><path d="m380.229 202.148.051.03.268-.183 17.949-10.368c1.318-.76 3.309-.843 4.451-.184l18.538 10.706c1.051-.753 1.106-1.777.053-2.387l-18.591-10.737c-1.142-.659-3.133-.576-4.451.185l-17.949 10.367c-1.317.761-1.46 1.913-.319 2.571Z" fill="url('#paint24_linear_4_396')"/><path opacity=".3" d="m105.36 267.844-39.727-22.945c-2.438-1.408-2.131-3.867.684-5.493l38.358-22.155c2.815-1.626 7.074-1.802 9.512-.395l39.725 22.945c2.438 1.408 2.132 3.867-.683 5.495l-38.357 22.153c-2.817 1.626-7.075 1.802-9.512.395Z" fill="#0030AD"/><path d="M106.467 253.315c1.75 1.009 5.138.825 7.256-.396l38.356-22.154c.965-.556 1.196-1.06 1.201-1.155-.013-.027-.143-.213-.517-.43l-39.725-22.945c-1.751-1.01-5.141-.826-7.255.395l-38.358 22.155c-.964.557-1.196 1.06-1.201 1.155.012.027.142.213.516.429l39.728 22.946h-.001Zm3.023 5.172c-1.941 0-3.814-.417-5.278-1.264h-.001l-39.727-22.944c-1.762-1.018-2.772-2.6-2.772-4.34 0-1.949 1.259-3.795 3.457-5.062l38.357-22.155c3.551-2.052 8.608-2.221 11.768-.395l39.725 22.945c1.762 1.016 2.773 2.599 2.774 4.34 0 1.948-1.259 3.794-3.457 5.063l-38.357 22.153c-1.904 1.1-4.242 1.659-6.489 1.659Z" fill="#fff"/><path d="M155.539 215.468v-13.712l-30.734-.017-10.625-6.136c-2.438-1.408-6.696-1.231-9.512.394l-9.912 5.726-30.763-.018v14.102c-.067.953.463 1.873 1.634 2.549l39.726 22.945c2.438 1.407 6.696 1.231 9.512-.395l38.358-22.154c1.623-.938 2.407-2.152 2.316-3.284Z" fill="url('#paint25_linear_4_396')"/><path fill-rule="evenodd" clip-rule="evenodd" d="M109.767 194.653c-1.784.043-3.636.494-5.099 1.338l-9.912 5.725-30.763-.017V215.8c-.067.953.463 1.873 1.634 2.549l39.726 22.945c1.171.677 2.764.983 4.414.943v-47.584Z" fill="url('#paint26_linear_4_396')"/><path d="m67.477 201.738-3.484-.001v14.101c-.067.954.463 1.874 1.634 2.55l1.85 1.068v-17.718Z" fill="#D4EBFA"/><path d="M105.93 241.45c2.104.901 5.146.852 7.605-.087v-16.011h-7.605v16.098Z" fill="url('#paint27_linear_4_396')"/><path fill-rule="evenodd" clip-rule="evenodd" d="m105.36 227.362-39.727-22.945c-2.438-1.408-2.131-3.869.684-5.495l38.358-22.154c2.815-1.625 7.074-1.802 9.512-.395l39.725 22.945c2.438 1.408 2.132 3.868-.683 5.495l-38.357 22.154c-2.817 1.626-7.075 1.802-9.512.395Z" fill="url('#paint28_linear_4_396')"/><path d="m153.229 202.103-38.358 22.154c-2.817 1.626-7.074 1.802-9.512.395l-39.726-22.945c-.542-.313-.943-.682-1.216-1.079-.838 1.347-.458 2.811 1.216 3.778l39.726 22.945c2.438 1.407 6.695 1.231 9.512-.395l38.358-22.154c2.187-1.264 2.852-3.029 1.898-4.414-.381.614-1.017 1.205-1.898 1.715Z" fill="#fff"/><path d="M140.922 219.076c0 1.022-.718 2.267-1.605 2.78-.886.511-1.604.096-1.604-.927 0-1.024.718-2.269 1.604-2.78.887-.511 1.605-.097 1.605.927ZM146.065 216.04c0 1.025-.718 2.268-1.605 2.781-.885.511-1.604.096-1.604-.929 0-1.022.719-2.267 1.604-2.779.887-.511 1.605-.097 1.605.927ZM151.249 213.004c0 1.023-.718 2.268-1.604 2.779-.886.512-1.605.097-1.605-.927 0-1.022.719-2.267 1.605-2.779s1.604-.098 1.604.927Z" fill="#D4EBFA"/><path d="M107.669 212.885 89.08 202.148c-1.141-.658-.998-1.81.32-2.571l17.949-10.367c1.317-.761 3.31-.844 4.451-.185l18.589 10.737c1.142.659.999 1.811-.319 2.571l-17.95 10.368c-1.317.76-3.311.843-4.451.184Z" fill="url('#paint29_linear_4_396')"/><path d="m109.452 204.086-2.572-1.485c-.159-.091-.139-.249.044-.355l2.483-1.433c.182-.106.458-.118.616-.027l2.571 1.486c.159.091.139.251-.044.355l-2.484 1.435c-.181.105-.457.117-.614.024Z" fill="#D4EBFA"/><path d="m89.08 202.148.053.03.266-.183 17.95-10.368c1.317-.76 3.31-.843 4.451-.184l18.536 10.706c1.054-.753 1.108-1.777.053-2.387L111.8 189.025c-1.141-.659-3.134-.576-4.451.185l-17.95 10.367c-1.317.761-1.46 1.913-.319 2.571Z" fill="#386DAB"/><defs><linearGradient id="paint0_linear_4_396" x1="137.282" y1="308.849" x2="106.539" y2="308.849" gradientUnits="userSpaceOnUse"><stop stop-color="#008EFF"/><stop offset=".753" stop-color="#8CF"/><stop offset="1" stop-color="#BEE0FF"/></linearGradient><linearGradient id="paint1_linear_4_396" x1="158.754" y1="286.19" x2="80.122" y2="286.19" gradientUnits="userSpaceOnUse"><stop stop-color="#008EFF"/><stop offset=".32" stop-color="#8CF"/><stop offset="1" stop-color="#BEE0FF"/></linearGradient><linearGradient id="paint2_linear_4_396" x1="111.274" y1="308.849" x2="80.531" y2="308.849" gradientUnits="userSpaceOnUse"><stop stop-color="#008EFF"/><stop offset=".753" stop-color="#8CF"/><stop offset="1" stop-color="#BEE0FF"/></linearGradient><linearGradient id="paint3_linear_4_396" x1="428.431" y1="146.92" x2="397.687" y2="146.92" gradientUnits="userSpaceOnUse"><stop stop-color="#008EFF"/><stop offset=".753" stop-color="#8CF"/><stop offset="1" stop-color="#BEE0FF"/></linearGradient><linearGradient id="paint4_linear_4_396" x1="449.902" y1="124.261" x2="371.271" y2="124.261" gradientUnits="userSpaceOnUse"><stop stop-color="#008EFF"/><stop offset=".32" stop-color="#8CF"/><stop offset="1" stop-color="#BEE0FF"/></linearGradient><linearGradient id="paint5_linear_4_396" x1="402.422" y1="146.92" x2="371.679" y2="146.92" gradientUnits="userSpaceOnUse"><stop stop-color="#008EFF"/><stop offset=".753" stop-color="#8CF"/><stop offset="1" stop-color="#BEE0FF"/></linearGradient><linearGradient id="paint6_linear_4_396" x1="428.431" y1="308.849" x2="397.687" y2="308.849" gradientUnits="userSpaceOnUse"><stop stop-color="#008EFF"/><stop offset=".753" stop-color="#8CF"/><stop offset="1" stop-color="#BEE0FF"/></linearGradient><linearGradient id="paint7_linear_4_396" x1="449.901" y1="286.19" x2="371.271" y2="286.19" gradientUnits="userSpaceOnUse"><stop stop-color="#008EFF"/><stop offset=".32" stop-color="#8CF"/><stop offset="1" stop-color="#BEE0FF"/></linearGradient><linearGradient id="paint8_linear_4_396" x1="402.422" y1="308.849" x2="371.679" y2="308.849" gradientUnits="userSpaceOnUse"><stop stop-color="#008EFF"/><stop offset=".753" stop-color="#8CF"/><stop offset="1" stop-color="#BEE0FF"/></linearGradient><linearGradient id="paint9_linear_4_396" x1="137.282" y1="146.92" x2="106.539" y2="146.92" gradientUnits="userSpaceOnUse"><stop stop-color="#008EFF"/><stop offset=".753" stop-color="#8CF"/><stop offset="1" stop-color="#BEE0FF"/></linearGradient><linearGradient id="paint10_linear_4_396" x1="158.754" y1="124.261" x2="80.122" y2="124.261" gradientUnits="userSpaceOnUse"><stop stop-color="#008EFF"/><stop offset=".32" stop-color="#8CF"/><stop offset="1" stop-color="#BEE0FF"/></linearGradient><linearGradient id="paint11_linear_4_396" x1="111.274" y1="146.92" x2="80.531" y2="146.92" gradientUnits="userSpaceOnUse"><stop stop-color="#008EFF"/><stop offset=".753" stop-color="#8CF"/><stop offset="1" stop-color="#BEE0FF"/></linearGradient><linearGradient id="paint12_linear_4_396" x1="337.541" y1="158.817" x2="244.029" y2="158.817" gradientUnits="userSpaceOnUse"><stop stop-color="#008EFF"/><stop offset=".753" stop-color="#8CF"/><stop offset="1" stop-color="#BEE0FF"/></linearGradient><linearGradient id="paint13_linear_4_396" x1="398.832" y1="51.23" x2="168.899" y2="51.23" gradientUnits="userSpaceOnUse"><stop stop-color="#008EFF"/><stop offset=".32" stop-color="#8CF"/><stop offset="1" stop-color="#BEE0FF"/></linearGradient><linearGradient id="paint14_linear_4_396" x1="306.431" y1="319.562" x2="198.179" y2="319.562" gradientUnits="userSpaceOnUse"><stop stop-color="#008EFF"/><stop offset=".753" stop-color="#8CF"/><stop offset="1" stop-color="#BEE0FF"/></linearGradient><linearGradient id="paint15_linear_4_396" x1="257.986" y1="319.557" x2="203.86" y2="319.557" gradientUnits="userSpaceOnUse"><stop stop-color="#008EFF"/><stop offset=".753" stop-color="#8CF"/><stop offset="1" stop-color="#BEE0FF"/></linearGradient><linearGradient id="paint16_linear_4_396" x1="259.572" y1="335.234" x2="250.581" y2="335.234" gradientUnits="userSpaceOnUse"><stop stop-color="#008EFF"/><stop offset=".753" stop-color="#8CF"/><stop offset="1" stop-color="#BEE0FF"/></linearGradient><linearGradient id="paint17_linear_4_396" x1="341.598" y1="302.968" x2="203.14" y2="302.968" gradientUnits="userSpaceOnUse"><stop stop-color="#008EFF"/><stop offset=".32" stop-color="#8CF"/><stop offset="1" stop-color="#BEE0FF"/></linearGradient><linearGradient id="paint18_linear_4_396" x1="250.471" y1="312.512" x2="237.197" y2="279.779" gradientUnits="userSpaceOnUse"><stop stop-color="#418CFF"/><stop offset="1" stop-color="#0646BD"/></linearGradient><linearGradient id="paint19_linear_4_396" x1="452.027" y1="218.356" x2="343.775" y2="218.356" gradientUnits="userSpaceOnUse"><stop stop-color="#008EFF"/><stop offset=".753" stop-color="#8CF"/><stop offset="1" stop-color="#BEE0FF"/></linearGradient><linearGradient id="paint20_linear_4_396" x1="403.582" y1="218.351" x2="349.456" y2="218.351" gradientUnits="userSpaceOnUse"><stop stop-color="#008EFF"/><stop offset=".753" stop-color="#8CF"/><stop offset="1" stop-color="#BEE0FF"/></linearGradient><linearGradient id="paint21_linear_4_396" x1="405.166" y1="233.691" x2="396.177" y2="233.691" gradientUnits="userSpaceOnUse"><stop stop-color="#008EFF"/><stop offset=".753" stop-color="#8CF"/><stop offset="1" stop-color="#BEE0FF"/></linearGradient><linearGradient id="paint22_linear_4_396" x1="487.193" y1="201.762" x2="348.736" y2="201.762" gradientUnits="userSpaceOnUse"><stop stop-color="#008EFF"/><stop offset=".32" stop-color="#8CF"/><stop offset="1" stop-color="#BEE0FF"/></linearGradient><linearGradient id="paint23_linear_4_396" x1="396.024" y1="210.968" x2="382.75" y2="178.236" gradientUnits="userSpaceOnUse"><stop stop-color="#418CFF"/><stop offset="1" stop-color="#0646BD"/></linearGradient><linearGradient id="paint24_linear_4_396" x1="396.021" y1="200.881" x2="391.575" y2="180.93" gradientUnits="userSpaceOnUse"><stop stop-color="#418CFF"/><stop offset="1" stop-color="#0646BD"/></linearGradient><linearGradient id="paint25_linear_4_396" x1="160.879" y1="218.356" x2="52.626" y2="218.356" gradientUnits="userSpaceOnUse"><stop stop-color="#008EFF"/><stop offset=".753" stop-color="#8CF"/><stop offset="1" stop-color="#BEE0FF"/></linearGradient><linearGradient id="paint26_linear_4_396" x1="112.434" y1="218.351" x2="58.307" y2="218.351" gradientUnits="userSpaceOnUse"><stop stop-color="#008EFF"/><stop offset=".753" stop-color="#8CF"/><stop offset="1" stop-color="#BEE0FF"/></linearGradient><linearGradient id="paint27_linear_4_396" x1="113.978" y1="233.691" x2="104.986" y2="233.691" gradientUnits="userSpaceOnUse"><stop stop-color="#008EFF"/><stop offset=".753" stop-color="#8CF"/><stop offset="1" stop-color="#BEE0FF"/></linearGradient><linearGradient id="paint28_linear_4_396" x1="196.045" y1="201.762" x2="57.587" y2="201.762" gradientUnits="userSpaceOnUse"><stop stop-color="#008EFF"/><stop offset=".32" stop-color="#8CF"/><stop offset="1" stop-color="#BEE0FF"/></linearGradient><linearGradient id="paint29_linear_4_396" x1="104.875" y1="210.968" x2="91.601" y2="178.235" gradientUnits="userSpaceOnUse"><stop stop-color="#418CFF"/><stop offset="1" stop-color="#0646BD"/></linearGradient></defs></svg>