<svg width="49" height="55" fill="none" xmlns="http://www.w3.org/2000/svg"><path d="M16.035 30.81a1.643 1.643 0 0 1 1.456 1.81.821.821 0 0 0 1.633.178 3.286 3.286 0 0 0-2.108-3.417l.102-.933a.821.821 0 0 0-1.634-.177l-.101.933a3.279 3.279 0 0 0 .12 6.505 1.642 1.642 0 1 1-1.81 1.456.821.821 0 0 0-1.634-.177 3.286 3.286 0 0 0 2.108 3.416l-.101.933a.822.822 0 0 0 1.633.177l.1-.93a3.279 3.279 0 0 0-.119-6.508 1.643 1.643 0 0 1 .355-3.266ZM19.371 22.91l-4.9-.533a.821.821 0 0 0-.177 1.634l4.9.532a.821.821 0 0 0 .177-1.634ZM16.889 45.775l-4.9-.532a.821.821 0 1 0-.177 1.633l4.9.532a.821.821 0 0 0 .177-1.633Z" fill="#E8C400"/><path d="m44.138 36.753-9.735-22.065a13.831 13.831 0 0 0 2.209-2.213c1.6-2.057 2.07-4.123 1.323-5.817-1.486-3.372-7.273-3.974-13.174-1.372-.784.352-1.545.753-2.278 1.201l-.578-.82a4.169 4.169 0 0 0-2.952-1.738 4.168 4.168 0 0 0-3.255 1.065L5.672 14.14a4.16 4.16 0 0 0-1.333 2.626L1.55 42.457a7.401 7.401 0 0 0 6.552 8.148l11.433 1.241a7.4 7.4 0 0 0 8.148-6.552l2.789-25.69a4.152 4.152 0 0 0-.413-2.29l.007.001a20.065 20.065 0 0 0 2.98-1.63l9.589 21.73A5.75 5.75 0 0 1 39.695 45L29.174 49.64a5.7 5.7 0 0 1-1.45.415.822.822 0 0 0 .249 1.624 7.388 7.388 0 0 0 1.86-.536L40.354 46.5a7.392 7.392 0 0 0 3.784-9.748Zm-18.089 8.364a5.756 5.756 0 0 1-6.337 5.096L8.28 48.97a5.757 5.757 0 0 1-5.095-6.337l2.789-25.69c.066-.61.353-1.176.807-1.59l10.026-9.146a2.52 2.52 0 0 1 3.756.408l6.985 9.89a13.597 13.597 0 0 1-5.963.66c.059-.2.102-.405.13-.613a4.112 4.112 0 0 0-3.64-4.526.803.803 0 0 0-.267.025.812.812 0 0 0-.954.527 4.591 4.591 0 0 0 .039 3.359 4.45 4.45 0 0 0 2.175 2.167 2.453 2.453 0 0 1-3.886-2.26.822.822 0 0 0-1.633-.178 4.102 4.102 0 0 0 7.268 3.025c.317.069.638.122.962.158a15.841 15.841 0 0 0 6.737-.94c.265.46.378.99.323 1.517l-2.789 25.69Zm-5.968-28.74c-.016.119-.041.236-.075.352a2.987 2.987 0 0 1-1.61-1.454 2.635 2.635 0 0 1-.148-1.54 2.464 2.464 0 0 1 1.833 2.641Zm9.322-.572c-.087.039-.173.07-.26.108l-5.707-8.084c.64-.385 1.305-.73 1.988-1.036 4.889-2.158 9.93-1.914 11.007.534.493 1.116.096 2.589-1.117 4.147a11.76 11.76 0 0 1-1.601 1.658l-.007-.016a4.161 4.161 0 0 0-2.065-2.1l-3.08-1.429a.821.821 0 0 0-.688 1.491l3.081 1.423c.558.258 1.002.71 1.25 1.272l.169.382a18.3 18.3 0 0 1-2.97 1.652v-.002Z" fill="#E8C400"/><path d="M30.373 36.751a.821.821 0 0 0 1.083.42l6.012-2.652a.822.822 0 1 0-.663-1.503l-6.012 2.652a.822.822 0 0 0-.42 1.083ZM30.859 41.92a.82.82 0 0 0 1.082.422l7.516-3.316a.821.821 0 1 0-.663-1.504l-7.516 3.316a.821.821 0 0 0-.42 1.083ZM32.386 32.153a.823.823 0 0 0 .42-.066l3.006-1.326a.822.822 0 1 0-.663-1.503l-3.006 1.326a.821.821 0 0 0 .243 1.569Z" fill="#E8C400"/></svg>