<svg width="57" height="40" fill="none" xmlns="http://www.w3.org/2000/svg"><path d="M6.54 2.147h43.605c.976 0 1.816.664 2.188 1.61H4.35c.368-.946 1.208-1.61 2.19-1.61ZM3.074 31.16c.593 0 1.076-.48 1.076-1.073V5.905h48.382v24.323c0 .593.483 1.074 1.076 1.074.593 0 1.07-.48 1.07-1.074V4.831C54.68 2.167 52.65 0 50.145 0H6.539C4.035 0 2 2.167 2 4.831v25.255c0 .592.483 1.073 1.076 1.073ZM50.612 37.624H6.389a4.238 4.238 0 0 1-4.11-3.222H36.32v1.084c0 .593.483 1.074 1.076 1.074.593 0 1.071-.48 1.071-1.074v-1.084h1.7v1.084c0 .593.483 1.074 1.077 1.074.593 0 1.07-.48 1.07-1.074v-1.084h1.7v1.084c0 .593.484 1.074 1.077 1.074s1.07-.48 1.07-1.074v-1.084h1.701v1.084c0 .593.483 1.074 1.076 1.074.593 0 1.07-.48 1.07-1.074v-1.084h4.72a4.244 4.244 0 0 1-4.116 3.222Zm5.317-5.37H1.071C.478 32.255 0 32.79 0 33.383a6.396 6.396 0 0 0 6.388 6.389h44.224c3.522 0 6.388-2.866 6.388-6.443 0-.593-.483-1.074-1.07-1.074Z" fill="#E8C400"/><path d="M30.487 18.94a.678.678 0 0 1-1.354 0 .678.678 0 0 1 1.354 0Zm-3.5 0a2.826 2.826 0 0 0 2.823 2.824 2.826 2.826 0 0 0 2.824-2.823 2.826 2.826 0 0 0-2.824-2.824 2.826 2.826 0 0 0-2.824 2.824ZM23.158 18.94a.678.678 0 0 1-1.355 0 .678.678 0 0 1 1.355 0Zm-3.501 0a2.826 2.826 0 0 0 2.823 2.824 2.829 2.829 0 0 0 2.824-2.823 2.83 2.83 0 0 0-2.823-2.824 2.826 2.826 0 0 0-2.824 2.824ZM37.484 18.94a.678.678 0 0 1-1.354 0 .678.678 0 0 1 1.354 0Zm-3.501 0a2.826 2.826 0 0 0 2.824 2.824 2.826 2.826 0 0 0 2.823-2.823 2.826 2.826 0 0 0-2.823-2.824 2.826 2.826 0 0 0-2.824 2.824Z" fill="#E8C400"/></svg>