<svg width="408" height="173" viewBox="0 0 408 173" fill="none" xmlns="http://www.w3.org/2000/svg">
<path d="M38.1224 128.45C38.586 127.78 39.0885 127.137 39.6274 126.526C48.57 116.331 73.969 104.095 111.141 92.069C148.623 79.945 193.537 69.495 237.617 62.642C281.698 55.79 319.583 53.373 344.26 55.832C357.657 57.18 366.275 59.853 369.882 63.688L406.656 56.506C405.949 55.538 405.105 54.68 404.15 53.958C398.955 49.914 388.896 47.125 374.268 45.67C359.639 44.215 341.287 44.163 319.583 45.493C297.156 46.888 272.172 49.677 245.314 53.861C218.455 58.045 191.3 63.321 164.604 69.578C138.759 75.622 114.433 82.334 92.303 89.494C70.075 96.676 51.195 103.965 36.1497 111.157C20.5161 118.623 9.7541 125.647 4.1509 132.03C3.1708 133.126 2.2978 134.313 1.5437 135.577L38.1224 128.45Z" fill="#FFD700"/>
<path d="M367.183 122.672C367.183 135.879 361.956 148.545 352.654 157.884C343.351 167.223 330.734 172.469 317.577 172.469H40.813V150.732C40.813 144.967 43.0943 139.438 47.1552 135.361C51.216 131.284 56.724 128.994 62.467 128.994C63.129 128.994 63.782 129.022 64.43 129.082C62.418 120.957 62.786 112.421 65.49 104.5C68.193 96.58 73.117 89.611 79.67 84.432C86.223 79.252 94.127 76.083 102.431 75.303C110.735 74.524 119.087 76.168 126.483 80.038C126.07 76.911 125.862 73.76 125.862 70.606C125.866 54.832 131.13 39.514 140.815 27.094C150.5 14.673 164.049 5.86499 179.301 2.07399C194.552 -1.71701 210.629 -0.273016 224.969 6.17498C239.308 12.624 251.084 23.706 258.419 37.655C264.238 31.921 271.749 28.232 279.83 27.139C287.91 26.045 296.126 27.606 303.25 31.588C310.374 35.57 316.022 41.76 319.352 49.232C322.681 56.703 323.513 65.056 321.722 73.042C334.118 74.086 345.671 79.767 354.091 88.96C362.511 98.152 367.183 110.184 367.183 122.672Z" fill="white"/>
<path d="M137.292 98.86C138.575 97.855 139.944 97.109 141.4 96.624C142.856 96.139 144.624 95.896 146.704 95.896C148.784 95.896 150.604 96.364 152.164 97.3C153.759 98.236 154.556 99.241 154.556 100.316C154.556 101.633 153.811 102.379 152.32 102.552C151.973 101.789 151.193 101.096 149.98 100.472C148.767 99.813 147.328 99.484 145.664 99.484C143.341 99.484 141.417 100.316 139.892 101.98C138.367 103.609 137.604 106.001 137.604 109.156C137.604 112.311 138.384 114.72 139.944 116.384C141.504 118.048 143.376 118.88 145.56 118.88C149.027 118.88 151.367 117.753 152.58 115.5C153.239 115.5 153.793 115.708 154.244 116.124C154.695 116.505 154.92 117.008 154.92 117.632C154.92 118.845 154.088 119.955 152.424 120.96C150.76 121.931 148.853 122.416 146.704 122.416C144.589 122.416 142.787 122.173 141.296 121.688C139.84 121.168 138.488 120.405 137.24 119.4C135.992 118.36 135.004 116.973 134.276 115.24C133.548 113.507 133.184 111.496 133.184 109.208C133.184 106.885 133.548 104.84 134.276 103.072C135.039 101.269 136.044 99.865 137.292 98.86ZM167.042 95.948C174.391 95.948 178.066 99.363 178.066 106.192V116.488C178.066 118.395 178.794 119.608 180.25 120.128C179.73 121.445 178.759 122.104 177.338 122.104C176.298 122.104 175.466 121.74 174.842 121.012C174.253 120.249 173.958 119.261 173.958 118.048C171.774 120.96 168.949 122.416 165.482 122.416C162.674 122.416 160.455 121.705 158.826 120.284C157.231 118.828 156.434 116.887 156.434 114.46C156.434 111.999 157.37 110.005 159.242 108.48C161.149 106.955 163.714 106.192 166.938 106.192C168.879 106.192 170.509 106.4 171.826 106.816C172.901 107.197 173.542 107.44 173.75 107.544V105.256C173.75 103.141 173.213 101.651 172.138 100.784C171.063 99.883 169.434 99.432 167.25 99.432C164.165 99.432 161.773 100.611 160.074 102.968C158.618 102.76 157.89 102.084 157.89 100.94C157.89 99.623 158.791 98.461 160.594 97.456C162.397 96.451 164.546 95.948 167.042 95.948ZM173.75 110.872C171.566 109.901 169.417 109.416 167.302 109.416C165.187 109.416 163.558 109.867 162.414 110.768C161.27 111.669 160.698 112.848 160.698 114.304C160.698 115.725 161.183 116.869 162.154 117.736C163.159 118.568 164.615 118.984 166.522 118.984C168.463 118.984 170.145 118.291 171.566 116.904C173.022 115.517 173.75 113.836 173.75 111.86V110.872ZM185.095 96.364H185.459C186.777 96.364 187.435 97.023 187.435 98.34V100.888C188.094 99.571 189.134 98.409 190.555 97.404C191.977 96.399 193.606 95.896 195.443 95.896C198.251 95.896 200.539 96.745 202.307 98.444C204.11 100.108 205.011 102.76 205.011 106.4V120.024C205.011 120.717 204.855 121.22 204.543 121.532C204.231 121.844 203.729 122 203.035 122H202.619C201.337 122 200.695 121.341 200.695 120.024V106.556C200.695 104.025 200.158 102.223 199.083 101.148C198.009 100.073 196.449 99.536 194.403 99.536C192.358 99.536 190.694 100.368 189.411 102.032C188.129 103.696 187.487 105.897 187.487 108.636V120.024C187.487 121.341 186.811 122 185.459 122H185.095C184.402 122 183.899 121.844 183.587 121.532C183.275 121.22 183.119 120.717 183.119 120.024V98.34C183.119 97.023 183.778 96.364 185.095 96.364ZM218.721 114.564L216.381 114.46C215.549 114.46 214.838 114.685 214.249 115.136C213.659 115.552 213.365 116.02 213.365 116.54C213.365 117.857 214.474 118.516 216.693 118.516H220.541C227.925 118.516 231.617 120.787 231.617 125.328C231.617 127.72 230.455 129.661 228.133 131.152C225.845 132.643 222.898 133.457 219.293 133.596H218.045C215.098 133.596 212.585 133.007 210.505 131.828C208.425 130.649 207.385 129.263 207.385 127.668C207.385 126.905 207.558 126.299 207.905 125.848C208.286 125.397 208.771 125.137 209.361 125.068C210.019 126.42 211.181 127.547 212.845 128.448C214.509 129.349 216.467 129.8 218.721 129.8H219.085C221.685 129.8 223.713 129.401 225.169 128.604C226.659 127.807 227.405 126.801 227.405 125.588C227.405 124.409 226.746 123.543 225.429 122.988C224.146 122.468 221.91 122.208 218.721 122.208C215.566 122.208 213.191 121.896 211.597 121.272C210.002 120.648 209.205 119.435 209.205 117.632C209.205 115.829 210.47 114.408 213.001 113.368C209.985 111.669 208.477 108.965 208.477 105.256C208.477 102.309 209.482 100.021 211.493 98.392C213.503 96.763 215.982 95.948 218.929 95.948C220.419 95.948 221.789 96.26 223.037 96.884C224.319 97.508 225.29 98.184 225.949 98.912C227.266 98.045 227.925 96.468 227.925 94.18C228.861 94.18 229.693 94.475 230.421 95.064C231.149 95.619 231.513 96.329 231.513 97.196C231.513 98.929 230.23 100.177 227.665 100.94C228.427 101.98 228.809 103.505 228.809 105.516C228.809 108.463 227.838 110.716 225.897 112.276C223.99 113.801 221.598 114.564 218.721 114.564ZM223.089 100.784C221.945 99.779 220.489 99.276 218.721 99.276C216.953 99.276 215.479 99.779 214.301 100.784C213.122 101.755 212.533 103.263 212.533 105.308C212.533 107.353 213.122 108.879 214.301 109.884C215.479 110.855 216.953 111.34 218.721 111.34C220.489 111.34 221.945 110.855 223.089 109.884C224.267 108.879 224.857 107.353 224.857 105.308C224.857 103.263 224.267 101.755 223.089 100.784ZM236.313 96.364H236.625C237.943 96.364 238.601 97.005 238.601 98.288V101.096C239.191 99.779 240.127 98.6 241.409 97.56C242.727 96.52 244.131 96 245.621 96C247.112 96 248.239 96.295 249.001 96.884C249.799 97.473 250.197 98.201 250.197 99.068C250.197 99.9 249.833 100.559 249.105 101.044C248.031 100.143 246.887 99.692 245.673 99.692C243.524 99.692 241.825 100.576 240.577 102.344C239.329 104.077 238.705 106.261 238.705 108.896V120.024C238.705 120.717 238.549 121.22 238.237 121.532C237.925 121.844 237.423 122 236.729 122H236.313C235.62 122 235.117 121.844 234.805 121.532C234.493 121.22 234.337 120.717 234.337 120.024V98.288C234.337 97.005 234.996 96.364 236.313 96.364ZM261.201 95.948C268.55 95.948 272.225 99.363 272.225 106.192V116.488C272.225 118.395 272.953 119.608 274.409 120.128C273.889 121.445 272.918 122.104 271.497 122.104C270.457 122.104 269.625 121.74 269.001 121.012C268.411 120.249 268.117 119.261 268.117 118.048C265.933 120.96 263.107 122.416 259.641 122.416C256.833 122.416 254.614 121.705 252.985 120.284C251.39 118.828 250.593 116.887 250.593 114.46C250.593 111.999 251.529 110.005 253.401 108.48C255.307 106.955 257.873 106.192 261.097 106.192C263.038 106.192 264.667 106.4 265.985 106.816C267.059 107.197 267.701 107.44 267.909 107.544V105.256C267.909 103.141 267.371 101.651 266.297 100.784C265.222 99.883 263.593 99.432 261.409 99.432C258.323 99.432 255.931 100.611 254.233 102.968C252.777 102.76 252.049 102.084 252.049 100.94C252.049 99.623 252.95 98.461 254.753 97.456C256.555 96.451 258.705 95.948 261.201 95.948ZM267.909 110.872C265.725 109.901 263.575 109.416 261.461 109.416C259.346 109.416 257.717 109.867 256.573 110.768C255.429 111.669 254.857 112.848 254.857 114.304C254.857 115.725 255.342 116.869 256.313 117.736C257.318 118.568 258.774 118.984 260.681 118.984C262.622 118.984 264.303 118.291 265.725 116.904C267.181 115.517 267.909 113.836 267.909 111.86V110.872Z" fill="url(#paint0_linear_41_8)"/>
<path d="M406.466 56.25L369.188 62.991C372.17 66.161 372.427 71.01 368.375 75.626C359.438 85.821 334.038 98.061 296.866 110.083C259.385 122.207 214.466 132.662 170.39 139.514C126.314 146.367 88.434 148.784 63.742 146.343C40.8339 144.061 32.2784 136.985 38.5485 127.841L1.73361 135.279C-1.09579 140.128 -0.51459 144.828 3.86621 148.221C9.06191 152.261 19.1154 155.05 33.7487 156.51C48.382 157.97 66.725 158.021 88.429 156.682C110.852 155.288 135.839 152.498 162.698 148.314C189.557 144.131 216.712 138.85 243.408 132.597C269.253 126.554 293.574 119.841 315.709 112.682C337.937 105.495 356.812 98.205 371.862 91.018C387.496 83.552 398.258 76.528 403.861 70.141C408.381 64.953 409.119 59.997 406.466 56.25Z" fill="#FFD700"/>
<defs>
<linearGradient id="paint0_linear_41_8" x1="173.714" y1="88.4559" x2="210.511" y2="161.916" gradientUnits="userSpaceOnUse">
<stop stop-color="#4971FF"/>
<stop offset="0.976669" stop-color="#294091"/>
</linearGradient>
</defs>
</svg>
