<svg width="494" height="196" viewBox="0 0 494 196" fill="none" xmlns="http://www.w3.org/2000/svg">
<path d="M304.01 0C345.9 0 380.62 30.96 386.53 71.22C388 71.09 389.49 71.01 391 71.01C419.83 71.01 443.3 95.51 443.94 125.91C448.76 123.21 454.29 121.61 460.2 121.61C478.65 121.61 493.64 136.61 493.64 155.11C493.64 173.51 474.76 193.81 456.31 193.81C299.92 194.31 196.02 195.81 40.17 194.81C19.19 194.81 0 184.91 0 163.91C0 142.91 17.03 125.91 38.01 125.91C43.48 125.91 48.67 127.01 53.37 129.11C61.89 115.01 77.35 105.61 95.02 105.61C101.97 105.61 108.6 107.01 114.59 109.71C117.92 88.28 136.44 71.87 158.78 71.87C176.42 71.87 191.67 82.09 198.96 96.91C205.48 93.11 212.92 90.59 220.86 89.93C220.7 87.77 220.6 85.61 220.6 83.41C220.6 37.38 257.97 0 304.01 0V0Z" fill="white"/>
</svg>
