<svg width="459" height="182" viewBox="0 0 459 182" fill="none" xmlns="http://www.w3.org/2000/svg">
<path d="M176.1 0C137.2 0 105 28.75 99.5 66.14C98.1 66.02 96.7 65.94 95.3 65.94C68.5 65.94 46.7001 88.67 46.2001 116.89C41.7001 114.39 36.5001 112.96 31.1001 112.96C13.9001 112.96 0 126.88 0 144.02C0 161.15 17.5001 179.94 34.7001 179.94C179.9 180.41 276.4 181.86 421.1 180.91C440.59 180.91 458.41 171.67 458.41 152.19C458.41 132.71 442.59 116.89 423.11 116.89C418.03 116.89 413.21 117.97 408.84 119.9C400.9 106.81 386.6 98.04 370.2 98.04C363.7 98.04 357.6 99.42 352 101.86C348.9 81.98 331.7 66.74 311 66.74C294.6 66.74 280.4 76.23 273.6 90.01C267.6 86.43 260.7 84.13 253.3 83.51C253.5 81.51 253.6 79.5 253.6 77.46C253.6 34.71 218.8 0 176.1 0V0Z" fill="white"/>
</svg>
