<svg width="512" height="512" viewBox="0 0 512 512" fill="none" xmlns="http://www.w3.org/2000/svg">
<g clip-path="url(#clip0_16_12)">
<path d="M90.1224 298.446C90.5859 297.776 91.0885 297.133 91.6274 296.522C100.569 286.327 125.969 274.091 163.141 262.065C200.623 249.941 245.537 239.491 289.617 232.638C333.698 225.786 371.583 223.369 396.26 225.828C409.657 227.176 418.275 229.849 421.882 233.684L458.655 226.502C457.949 225.534 457.105 224.676 456.15 223.954C450.955 219.91 440.896 217.121 426.268 215.666C411.639 214.211 393.287 214.159 371.583 215.489C349.156 216.884 324.172 219.673 297.314 223.857C270.455 228.041 243.3 233.317 216.603 239.574C190.759 245.618 166.433 252.331 144.303 259.49C122.075 266.672 103.195 273.961 88.1497 281.153C72.5161 288.619 61.7541 295.643 56.1508 302.026C55.1708 303.122 54.2977 304.31 53.5437 305.573L90.1224 298.446Z" fill="#FFD700"/>
<path d="M419.183 292.668C419.183 305.875 413.956 318.541 404.654 327.88C395.351 337.219 382.734 342.465 369.577 342.465H92.813V320.728C92.813 314.963 95.0943 309.434 99.1552 305.357C103.216 301.28 108.724 298.99 114.467 298.99C115.129 298.99 115.782 299.018 116.43 299.079C114.418 290.953 114.786 282.417 117.49 274.497C120.193 266.576 125.117 259.607 131.67 254.428C138.223 249.249 146.127 246.079 154.431 245.299C162.735 244.52 171.087 246.164 178.483 250.034C178.07 246.907 177.862 243.756 177.862 240.602C177.866 224.828 183.13 209.51 192.815 197.09C202.5 184.669 216.049 175.862 231.301 172.07C246.552 168.279 262.629 169.723 276.969 176.171C291.308 182.62 303.084 193.702 310.419 207.651C316.238 201.918 323.749 198.228 331.83 197.135C339.91 196.041 348.126 197.602 355.25 201.584C362.374 205.566 368.022 211.756 371.352 219.228C374.681 226.699 375.513 235.052 373.722 243.038C386.118 244.082 397.671 249.763 406.091 258.956C414.511 268.148 419.183 280.18 419.183 292.668Z" fill="url(#paint0_linear_16_12)"/>
<path d="M189.292 268.856C190.575 267.851 191.944 267.105 193.4 266.62C194.856 266.135 196.624 265.892 198.704 265.892C200.784 265.892 202.604 266.36 204.164 267.296C205.759 268.232 206.556 269.237 206.556 270.312C206.556 271.629 205.811 272.375 204.32 272.548C203.973 271.785 203.193 271.092 201.98 270.468C200.767 269.809 199.328 269.48 197.664 269.48C195.341 269.48 193.417 270.312 191.892 271.976C190.367 273.605 189.604 275.997 189.604 279.152C189.604 282.307 190.384 284.716 191.944 286.38C193.504 288.044 195.376 288.876 197.56 288.876C201.027 288.876 203.367 287.749 204.58 285.496C205.239 285.496 205.793 285.704 206.244 286.12C206.695 286.501 206.92 287.004 206.92 287.628C206.92 288.841 206.088 289.951 204.424 290.956C202.76 291.927 200.853 292.412 198.704 292.412C196.589 292.412 194.787 292.169 193.296 291.684C191.84 291.164 190.488 290.401 189.24 289.396C187.992 288.356 187.004 286.969 186.276 285.236C185.548 283.503 185.184 281.492 185.184 279.204C185.184 276.881 185.548 274.836 186.276 273.068C187.039 271.265 188.044 269.861 189.292 268.856ZM219.042 265.944C226.391 265.944 230.066 269.359 230.066 276.188V286.484C230.066 288.391 230.794 289.604 232.25 290.124C231.73 291.441 230.759 292.1 229.338 292.1C228.298 292.1 227.466 291.736 226.842 291.008C226.253 290.245 225.958 289.257 225.958 288.044C223.774 290.956 220.949 292.412 217.482 292.412C214.674 292.412 212.455 291.701 210.826 290.28C209.231 288.824 208.434 286.883 208.434 284.456C208.434 281.995 209.37 280.001 211.242 278.476C213.149 276.951 215.714 276.188 218.938 276.188C220.879 276.188 222.509 276.396 223.826 276.812C224.901 277.193 225.542 277.436 225.75 277.54V275.252C225.75 273.137 225.213 271.647 224.138 270.78C223.063 269.879 221.434 269.428 219.25 269.428C216.165 269.428 213.773 270.607 212.074 272.964C210.618 272.756 209.89 272.08 209.89 270.936C209.89 269.619 210.791 268.457 212.594 267.452C214.397 266.447 216.546 265.944 219.042 265.944ZM225.75 280.868C223.566 279.897 221.417 279.412 219.302 279.412C217.187 279.412 215.558 279.863 214.414 280.764C213.27 281.665 212.698 282.844 212.698 284.3C212.698 285.721 213.183 286.865 214.154 287.732C215.159 288.564 216.615 288.98 218.522 288.98C220.463 288.98 222.145 288.287 223.566 286.9C225.022 285.513 225.75 283.832 225.75 281.856V280.868ZM237.095 266.36H237.459C238.777 266.36 239.435 267.019 239.435 268.336V270.884C240.094 269.567 241.134 268.405 242.555 267.4C243.977 266.395 245.606 265.892 247.443 265.892C250.251 265.892 252.539 266.741 254.307 268.44C256.11 270.104 257.011 272.756 257.011 276.396V290.02C257.011 290.713 256.855 291.216 256.543 291.528C256.231 291.84 255.729 291.996 255.035 291.996H254.619C253.337 291.996 252.695 291.337 252.695 290.02V276.552C252.695 274.021 252.158 272.219 251.083 271.144C250.009 270.069 248.449 269.532 246.403 269.532C244.358 269.532 242.694 270.364 241.411 272.028C240.129 273.692 239.487 275.893 239.487 278.632V290.02C239.487 291.337 238.811 291.996 237.459 291.996H237.095C236.402 291.996 235.899 291.84 235.587 291.528C235.275 291.216 235.119 290.713 235.119 290.02V268.336C235.119 267.019 235.778 266.36 237.095 266.36ZM270.721 284.56L268.381 284.456C267.549 284.456 266.838 284.681 266.249 285.132C265.659 285.548 265.365 286.016 265.365 286.536C265.365 287.853 266.474 288.512 268.693 288.512H272.541C279.925 288.512 283.617 290.783 283.617 295.324C283.617 297.716 282.455 299.657 280.133 301.148C277.845 302.639 274.898 303.453 271.293 303.592H270.045C267.098 303.592 264.585 303.003 262.505 301.824C260.425 300.645 259.385 299.259 259.385 297.664C259.385 296.901 259.558 296.295 259.905 295.844C260.286 295.393 260.771 295.133 261.361 295.064C262.019 296.416 263.181 297.543 264.845 298.444C266.509 299.345 268.467 299.796 270.721 299.796H271.085C273.685 299.796 275.713 299.397 277.169 298.6C278.659 297.803 279.405 296.797 279.405 295.584C279.405 294.405 278.746 293.539 277.429 292.984C276.146 292.464 273.91 292.204 270.721 292.204C267.566 292.204 265.191 291.892 263.597 291.268C262.002 290.644 261.205 289.431 261.205 287.628C261.205 285.825 262.47 284.404 265.001 283.364C261.985 281.665 260.477 278.961 260.477 275.252C260.477 272.305 261.482 270.017 263.493 268.388C265.503 266.759 267.982 265.944 270.929 265.944C272.419 265.944 273.789 266.256 275.037 266.88C276.319 267.504 277.29 268.18 277.949 268.908C279.266 268.041 279.925 266.464 279.925 264.176C280.861 264.176 281.693 264.471 282.421 265.06C283.149 265.615 283.513 266.325 283.513 267.192C283.513 268.925 282.23 270.173 279.665 270.936C280.427 271.976 280.809 273.501 280.809 275.512C280.809 278.459 279.838 280.712 277.897 282.272C275.99 283.797 273.598 284.56 270.721 284.56ZM275.089 270.78C273.945 269.775 272.489 269.272 270.721 269.272C268.953 269.272 267.479 269.775 266.301 270.78C265.122 271.751 264.533 273.259 264.533 275.304C264.533 277.349 265.122 278.875 266.301 279.88C267.479 280.851 268.953 281.336 270.721 281.336C272.489 281.336 273.945 280.851 275.089 279.88C276.267 278.875 276.857 277.349 276.857 275.304C276.857 273.259 276.267 271.751 275.089 270.78ZM288.313 266.36H288.625C289.943 266.36 290.601 267.001 290.601 268.284V271.092C291.191 269.775 292.127 268.596 293.409 267.556C294.727 266.516 296.131 265.996 297.621 265.996C299.112 265.996 300.239 266.291 301.001 266.88C301.799 267.469 302.197 268.197 302.197 269.064C302.197 269.896 301.833 270.555 301.105 271.04C300.031 270.139 298.887 269.688 297.673 269.688C295.524 269.688 293.825 270.572 292.577 272.34C291.329 274.073 290.705 276.257 290.705 278.892V290.02C290.705 290.713 290.549 291.216 290.237 291.528C289.925 291.84 289.423 291.996 288.729 291.996H288.313C287.62 291.996 287.117 291.84 286.805 291.528C286.493 291.216 286.337 290.713 286.337 290.02V268.284C286.337 267.001 286.996 266.36 288.313 266.36ZM313.201 265.944C320.55 265.944 324.225 269.359 324.225 276.188V286.484C324.225 288.391 324.953 289.604 326.409 290.124C325.889 291.441 324.918 292.1 323.497 292.1C322.457 292.1 321.625 291.736 321.001 291.008C320.411 290.245 320.117 289.257 320.117 288.044C317.933 290.956 315.107 292.412 311.641 292.412C308.833 292.412 306.614 291.701 304.985 290.28C303.39 288.824 302.593 286.883 302.593 284.456C302.593 281.995 303.529 280.001 305.401 278.476C307.307 276.951 309.873 276.188 313.097 276.188C315.038 276.188 316.667 276.396 317.985 276.812C319.059 277.193 319.701 277.436 319.909 277.54V275.252C319.909 273.137 319.371 271.647 318.297 270.78C317.222 269.879 315.593 269.428 313.409 269.428C310.323 269.428 307.931 270.607 306.233 272.964C304.777 272.756 304.049 272.08 304.049 270.936C304.049 269.619 304.95 268.457 306.753 267.452C308.555 266.447 310.705 265.944 313.201 265.944ZM319.909 280.868C317.725 279.897 315.575 279.412 313.461 279.412C311.346 279.412 309.717 279.863 308.573 280.764C307.429 281.665 306.857 282.844 306.857 284.3C306.857 285.721 307.342 286.865 308.313 287.732C309.318 288.564 310.774 288.98 312.681 288.98C314.622 288.98 316.303 288.287 317.725 286.9C319.181 285.513 319.909 283.832 319.909 281.856V280.868Z" fill="white"/>
<path d="M458.466 226.246L421.188 232.987C424.17 236.157 424.427 241.006 420.375 245.622C411.438 255.817 386.038 268.057 348.866 280.079C311.385 292.203 266.466 302.658 222.39 309.51C178.314 316.363 140.434 318.78 115.742 316.339C92.8339 314.057 84.2784 306.981 90.5485 297.837L53.7336 305.275C50.9042 310.124 51.4854 314.824 55.8662 318.218C61.0619 322.257 71.1154 325.047 85.7487 326.506C100.382 327.966 118.725 328.017 140.429 326.678C162.852 325.284 187.839 322.494 214.698 318.31C241.557 314.127 268.712 308.846 295.408 302.593C321.253 296.55 345.574 289.837 367.709 282.678C389.937 275.491 408.812 268.201 423.862 261.014C439.496 253.549 450.258 246.524 455.861 240.137C460.381 234.949 461.119 229.993 458.466 226.246Z" fill="#FFD700"/>
</g>
<defs>
<linearGradient id="paint0_linear_16_12" x1="186.478" y1="144.954" x2="387.234" y2="356.632" gradientUnits="userSpaceOnUse">
<stop stop-color="#4971FF"/>
<stop offset="0.976669" stop-color="#294091"/>
</linearGradient>
<clipPath id="clip0_16_12">
<rect width="408" height="173" fill="white" transform="translate(52 170)"/>
</clipPath>
</defs>
</svg>
